<svg id="Layer_1" data-name="Layer 1" xmlns="http://www.w3.org/2000/svg" xmlns:xlink="http://www.w3.org/1999/xlink" viewBox="0 0 1080 954.88"><defs><style>.cls-1{fill:#f4f8fd;}.cls-2,.cls-3{fill:#cde5f8;}.cls-3{opacity:0.61;}.cls-4{fill:none;}.cls-5{clip-path:url(#clip-path);}.cls-12,.cls-13,.cls-14,.cls-6,.cls-9{fill:#538bc9;}.cls-6{opacity:0.1;}.cls-7{clip-path:url(#clip-path-2);}.cls-8{fill:#1d2d51;}.cls-10{fill:#fff;}.cls-11{clip-path:url(#clip-path-3);}.cls-12{opacity:0.26;}.cls-13{opacity:0.18;}.cls-14{opacity:0.14;}.cls-15{fill:#010101;}.cls-16{fill:#208ccd;}.cls-17{fill:#f8bfb2;}.cls-18{fill:#18233d;}.cls-19{fill:#87bbe6;}.cls-20{fill:#cbcaca;}.cls-21{fill:#e8e7e7;}.cls-22{fill:#e0e0e0;}.cls-23{fill:#fbfbfb;}.cls-24{fill:#ebebeb;}</style><clipPath id="clip-path" transform="translate(0 -62.56)"><path class="cls-1" d="M108.06,923.71H886.7c23.76-59.65,33.2-126.13,25.46-190.71-4-33.29-12.95-67.36-33.87-91.78-13.26-15.49-30.58-26.16-48.61-33.81a191.37,191.37,0,0,0-139.42-3.84c-29.6,10.72-59.41,29.09-90,22.32-13.31-2.95-25.39-10.54-36.6-19-60-45.06-105.83-118.82-176.76-135.8-45.86-11-94.75,5.27-132.93,35.34s-66.74,72.81-89.72,117.89C117.89,715.39,94.31,820.42,108.06,923.71Z"/></clipPath><clipPath id="clip-path-2" transform="translate(0 -62.56)"><rect class="cls-2" x="160.3" y="256.58" width="511.82" height="345.45" rx="9.66"/></clipPath><clipPath id="clip-path-3" transform="translate(0 -62.56)"><circle class="cls-3" cx="397.21" cy="667.89" r="76.22" transform="translate(-355.93 476.49) rotate(-45)"/></clipPath></defs><rect class="cls-4" width="1080" height="954.88"/><path class="cls-1" d="M108.06,923.71H886.7c23.76-59.65,33.2-126.13,25.46-190.71-4-33.29-12.95-67.36-33.87-91.78-13.26-15.49-30.58-26.16-48.61-33.81a191.37,191.37,0,0,0-139.42-3.84c-29.6,10.72-59.41,29.09-90,22.32-13.31-2.95-25.39-10.54-36.6-19-60-45.06-105.83-118.82-176.76-135.8-45.86-11-94.75,5.27-132.93,35.34s-66.74,72.81-89.72,117.89C117.89,715.39,94.31,820.42,108.06,923.71Z" transform="translate(0 -62.56)"/><g class="cls-5"><path class="cls-6" d="M762.62,684.21c-39.29,26.78-71.69,63.94-104.3,100-20.14,22.26-41.43,44.88-68.31,55.4-19.94,7.8-41.6,8.36-62.74,7.12a399.78,399.78,0,0,1-107.93-21.57c-42.66-14.84-83.12-36.89-126.24-50a323.57,323.57,0,0,0-195.29,2.27c-2,54.7-4.21,109.54-6.18,164.24,55.3,4.69,110.8-1.73,166.16-5.39,196.88-13,393.92,8.64,590.87,1.11,25.68-1,52-1.16,77.51-4.66.91-4.68.48-10.14.59-14.94q.21-8.13.3-16.27.2-16.28,0-32.54-.46-32.54-2.63-65-3.57-53.88-11.8-107.22c-1.5-9.72-3.18-19.5-6.36-28.76-2-5.9-4.62-13.74-10.64-15.88-5.35-1.9-12.16-1.31-17.73-1.91a132.56,132.56,0,0,0-26-.21C820.15,652.74,789.55,665.87,762.62,684.21Z" transform="translate(0 -62.56)"/></g><rect class="cls-2" x="160.3" y="194.02" width="511.82" height="345.45" rx="9.66"/><g class="cls-7"><rect class="cls-8" x="135.12" y="174.39" width="560.2" height="57.35"/></g><circle class="cls-9" cx="187.39" cy="214.48" r="7"/><circle class="cls-10" cx="212.82" cy="214.48" r="7"/><circle class="cls-10" cx="238.25" cy="214.48" r="7"/><path class="cls-8" d="M655.84,598.73H168.41a12.82,12.82,0,0,1-12.8-12.81v-321a12.81,12.81,0,0,1,12.8-12.8H655.84a12.81,12.81,0,0,1,12.8,12.8v321A12.82,12.82,0,0,1,655.84,598.73ZM168.41,253.28a11.6,11.6,0,0,0-11.59,11.59v321a11.61,11.61,0,0,0,11.59,11.6H655.84a11.61,11.61,0,0,0,11.59-11.6v-321a11.6,11.6,0,0,0-11.59-11.59Z" transform="translate(0 -62.56)"/><rect class="cls-1" x="183.05" y="285.26" width="137.8" height="243.39" rx="4.98"/><rect class="cls-2" x="191.38" y="296.47" width="53.57" height="68.33" rx="2.29"/><circle class="cls-2" cx="258.64" cy="300.74" r="4.28"/><path class="cls-2" d="M312.63,361.77H271.56a.92.92,0,0,1-.92-.91h0a.92.92,0,0,1,.92-.92h41.07a.92.92,0,0,1,.91.92h0A.91.91,0,0,1,312.63,361.77Z" transform="translate(0 -62.56)"/><path class="cls-2" d="M312.63,366.67H271.56a.92.92,0,0,1-.92-.91h0a.92.92,0,0,1,.92-.92h41.07a.92.92,0,0,1,.91.92h0A.91.91,0,0,1,312.63,366.67Z" transform="translate(0 -62.56)"/><path class="cls-2" d="M312.63,371.57H271.56a.92.92,0,0,1-.92-.91h0a.92.92,0,0,1,.92-.92h41.07a.92.92,0,0,1,.91.92h0A.91.91,0,0,1,312.63,371.57Z" transform="translate(0 -62.56)"/><circle class="cls-2" cx="258.64" cy="381.11" r="4.28" transform="translate(-163.85 501.96) rotate(-79.3)"/><path class="cls-2" d="M312.63,379.57H271.56a.92.92,0,0,1-.92-.91h0a.92.92,0,0,1,.92-.92h41.07a.92.92,0,0,1,.91.92h0A.91.91,0,0,1,312.63,379.57Z" transform="translate(0 -62.56)"/><path class="cls-2" d="M312.63,384.47H271.56a.92.92,0,0,1-.92-.91h0a.92.92,0,0,1,.92-.92h41.07a.92.92,0,0,1,.91.92h0A.91.91,0,0,1,312.63,384.47Z" transform="translate(0 -62.56)"/><path class="cls-2" d="M312.63,389.37H271.56a.92.92,0,0,1-.92-.91h0a.92.92,0,0,1,.92-.92h41.07a.92.92,0,0,1,.91.92h0A.91.91,0,0,1,312.63,389.37Z" transform="translate(0 -62.56)"/><circle class="cls-2" cx="258.64" cy="398.91" r="4.28" transform="translate(-181.34 516.46) rotate(-79.3)"/><path class="cls-2" d="M312.63,397.37H271.56a.92.92,0,0,1-.92-.91h0a.92.92,0,0,1,.92-.92h41.07a.92.92,0,0,1,.91.92h0A.91.91,0,0,1,312.63,397.37Z" transform="translate(0 -62.56)"/><path class="cls-2" d="M312.63,402.27H271.56a.92.92,0,0,1-.92-.91h0a.92.92,0,0,1,.92-.92h41.07a.92.92,0,0,1,.91.92h0A.91.91,0,0,1,312.63,402.27Z" transform="translate(0 -62.56)"/><path class="cls-2" d="M312.63,407.17H271.56a.92.92,0,0,1-.92-.91h0a.92.92,0,0,1,.92-.92h41.07a.92.92,0,0,1,.91.92h0A.91.91,0,0,1,312.63,407.17Z" transform="translate(0 -62.56)"/><circle class="cls-2" cx="258.64" cy="416.71" r="4.28" transform="translate(-175.83 126.59) rotate(-30.53)"/><path class="cls-2" d="M312.63,415.17H271.56a.92.92,0,0,1-.92-.91h0a.92.92,0,0,1,.92-.92h41.07a.92.92,0,0,1,.91.92h0A.91.91,0,0,1,312.63,415.17Z" transform="translate(0 -62.56)"/><path class="cls-2" d="M312.63,420.07H271.56a.92.92,0,0,1-.92-.91h0a.92.92,0,0,1,.92-.92h41.07a.92.92,0,0,1,.91.92h0A.91.91,0,0,1,312.63,420.07Z" transform="translate(0 -62.56)"/><path class="cls-2" d="M312.63,425H271.56a.92.92,0,0,1-.92-.91h0a.92.92,0,0,1,.92-.92h41.07a.92.92,0,0,1,.91.92h0A.91.91,0,0,1,312.63,425Z" transform="translate(0 -62.56)"/><rect class="cls-2" x="190.87" y="371.97" width="53.57" height="68.33" rx="2.29"/><circle class="cls-2" cx="258.13" cy="376.25" r="4.28"/><path class="cls-2" d="M312.12,437.27H271.05a.92.92,0,0,1-.92-.91h0a.92.92,0,0,1,.92-.92h41.07a.92.92,0,0,1,.91.92h0A.91.91,0,0,1,312.12,437.27Z" transform="translate(0 -62.56)"/><path class="cls-2" d="M312.12,442.17H271.05a.92.92,0,0,1-.92-.91h0a.92.92,0,0,1,.92-.92h41.07a.92.92,0,0,1,.91.92h0A.91.91,0,0,1,312.12,442.17Z" transform="translate(0 -62.56)"/><path class="cls-2" d="M312.12,447.07H271.05a.92.92,0,0,1-.92-.91h0a.91.91,0,0,1,.92-.91h41.07a.91.91,0,0,1,.91.91h0A.91.91,0,0,1,312.12,447.07Z" transform="translate(0 -62.56)"/><circle class="cls-2" cx="258.13" cy="456.61" r="4.28" transform="translate(-245.41 540.9) rotate(-76.78)"/><path class="cls-2" d="M312.12,455.07H271.05a.92.92,0,0,1-.92-.91h0a.92.92,0,0,1,.92-.92h41.07a.92.92,0,0,1,.91.92h0A.91.91,0,0,1,312.12,455.07Z" transform="translate(0 -62.56)"/><path class="cls-2" d="M312.12,460H271.05a.92.92,0,0,1-.92-.91h0a.92.92,0,0,1,.92-.92h41.07a.92.92,0,0,1,.91.92h0A.91.91,0,0,1,312.12,460Z" transform="translate(0 -62.56)"/><rect class="cls-2" x="270.13" y="400.48" width="42.9" height="1.83" rx="0.91"/><circle class="cls-2" cx="258.13" cy="474.41" r="4.28" transform="translate(-262.74 554.63) rotate(-76.78)"/><path class="cls-2" d="M312.12,472.87H271.05a.92.92,0,0,1-.92-.91h0a.92.92,0,0,1,.92-.92h41.07a.92.92,0,0,1,.91.92h0A.91.91,0,0,1,312.12,472.87Z" transform="translate(0 -62.56)"/><path class="cls-2" d="M312.12,477.77H271.05a.92.92,0,0,1-.92-.91h0a.92.92,0,0,1,.92-.92h41.07a.92.92,0,0,1,.91.92h0A.91.91,0,0,1,312.12,477.77Z" transform="translate(0 -62.56)"/><path class="cls-2" d="M312.12,482.67H271.05a.92.92,0,0,1-.92-.91h0a.91.91,0,0,1,.92-.91h41.07a.91.91,0,0,1,.91.91h0A.91.91,0,0,1,312.12,482.67Z" transform="translate(0 -62.56)"/><circle class="cls-2" cx="258.13" cy="492.21" r="4.28" transform="translate(-272.44 264.13) rotate(-45)"/><path class="cls-2" d="M312.12,490.67H271.05a.92.92,0,0,1-.92-.91h0a.92.92,0,0,1,.92-.92h41.07a.92.92,0,0,1,.91.92h0A.91.91,0,0,1,312.12,490.67Z" transform="translate(0 -62.56)"/><path class="cls-2" d="M312.12,495.57H271.05a.92.92,0,0,1-.92-.91h0a.92.92,0,0,1,.92-.92h41.07a.92.92,0,0,1,.91.92h0A.91.91,0,0,1,312.12,495.57Z" transform="translate(0 -62.56)"/><path class="cls-2" d="M312.12,500.47H271.05a.92.92,0,0,1-.92-.91h0a.91.91,0,0,1,.92-.91h41.07a.91.91,0,0,1,.91.91h0A.91.91,0,0,1,312.12,500.47Z" transform="translate(0 -62.56)"/><rect class="cls-2" x="190.36" y="447.47" width="53.57" height="68.33" rx="2.29"/><circle class="cls-2" cx="257.62" cy="451.75" r="4.28"/><path class="cls-2" d="M311.61,512.77H270.54a.91.91,0,0,1-.92-.91h0a.92.92,0,0,1,.92-.91h41.07a.91.91,0,0,1,.91.91h0A.91.91,0,0,1,311.61,512.77Z" transform="translate(0 -62.56)"/><path class="cls-2" d="M311.61,517.68H270.54a.92.92,0,0,1-.92-.92h0a.92.92,0,0,1,.92-.91h41.07a.91.91,0,0,1,.91.91h0A.92.92,0,0,1,311.61,517.68Z" transform="translate(0 -62.56)"/><path class="cls-2" d="M311.61,522.58H270.54a.92.92,0,0,1-.92-.92h0a.92.92,0,0,1,.92-.91h41.07a.91.91,0,0,1,.91.91h0A.92.92,0,0,1,311.61,522.58Z" transform="translate(0 -62.56)"/><circle class="cls-2" cx="257.62" cy="532.11" r="4.28" transform="translate(-319.31 598.64) rotate(-76.78)"/><rect class="cls-2" x="269.62" y="466.19" width="42.9" height="1.83" rx="0.91"/><path class="cls-2" d="M311.61,535.48H270.54a.92.92,0,0,1-.92-.92h0a.92.92,0,0,1,.92-.91h41.07a.91.91,0,0,1,.91.91h0A.92.92,0,0,1,311.61,535.48Z" transform="translate(0 -62.56)"/><path class="cls-2" d="M311.61,540.38H270.54a.92.92,0,0,1-.92-.92h0a.92.92,0,0,1,.92-.91h41.07a.91.91,0,0,1,.91.91h0A.92.92,0,0,1,311.61,540.38Z" transform="translate(0 -62.56)"/><circle class="cls-2" cx="257.62" cy="549.91" r="4.28" transform="translate(-336.64 612.37) rotate(-76.78)"/><path class="cls-2" d="M311.61,548.37H270.54a.91.91,0,0,1-.92-.91h0a.92.92,0,0,1,.92-.91h41.07a.91.91,0,0,1,.91.91h0A.91.91,0,0,1,311.61,548.37Z" transform="translate(0 -62.56)"/><path class="cls-2" d="M311.61,553.28H270.54a.92.92,0,0,1-.92-.92h0a.92.92,0,0,1,.92-.91h41.07a.91.91,0,0,1,.91.91h0A.92.92,0,0,1,311.61,553.28Z" transform="translate(0 -62.56)"/><path class="cls-2" d="M311.61,558.18H270.54a.92.92,0,0,1-.92-.92h0a.92.92,0,0,1,.92-.91h41.07a.91.91,0,0,1,.91.91h0A.92.92,0,0,1,311.61,558.18Z" transform="translate(0 -62.56)"/><circle class="cls-2" cx="257.62" cy="567.71" r="4.28" transform="translate(-325.98 285.88) rotate(-45)"/><path class="cls-2" d="M311.61,566.17H270.54a.91.91,0,0,1-.92-.91h0a.92.92,0,0,1,.92-.91h41.07a.91.91,0,0,1,.91.91h0A.91.91,0,0,1,311.61,566.17Z" transform="translate(0 -62.56)"/><path class="cls-2" d="M311.61,571.08H270.54a.92.92,0,0,1-.92-.92h0a.92.92,0,0,1,.92-.91h41.07a.91.91,0,0,1,.91.91h0A.92.92,0,0,1,311.61,571.08Z" transform="translate(0 -62.56)"/><path class="cls-2" d="M311.61,576H270.54a.92.92,0,0,1-.92-.92h0a.92.92,0,0,1,.92-.91h41.07a.91.91,0,0,1,.91.91h0A.92.92,0,0,1,311.61,576Z" transform="translate(0 -62.56)"/><rect class="cls-1" x="199.29" y="302.12" width="36.94" height="29.78" rx="1.91"/><rect class="cls-1" x="199.29" y="336.34" width="36.94" height="2.45" rx="1.14"/><rect class="cls-1" x="199.29" y="341.56" width="36.94" height="2.45" rx="1.14"/><rect class="cls-1" x="199.29" y="346.77" width="36.94" height="2.45" rx="1.14"/><rect class="cls-1" x="199.29" y="351.98" width="36.94" height="2.45" rx="1.14"/><rect class="cls-1" x="199.29" y="357.19" width="36.94" height="2.45" rx="1.14"/><rect class="cls-1" x="199.29" y="377.37" width="36.94" height="29.78" rx="1.91"/><rect class="cls-1" x="199.29" y="411.6" width="36.94" height="2.45" rx="1.14"/><rect class="cls-1" x="199.29" y="416.81" width="36.94" height="2.45" rx="1.14"/><rect class="cls-1" x="199.29" y="422.02" width="36.94" height="2.45" rx="1.14"/><rect class="cls-1" x="199.29" y="427.23" width="36.94" height="2.45" rx="1.14"/><rect class="cls-1" x="199.29" y="432.45" width="36.94" height="2.45" rx="1.14"/><rect class="cls-1" x="199.29" y="452.62" width="36.94" height="29.78" rx="1.91"/><rect class="cls-1" x="199.29" y="486.85" width="36.94" height="2.45" rx="1.14"/><rect class="cls-1" x="199.29" y="492.06" width="36.94" height="2.45" rx="1.14"/><rect class="cls-1" x="199.29" y="497.27" width="36.94" height="2.45" rx="1.14"/><rect class="cls-1" x="199.29" y="502.49" width="36.94" height="2.45" rx="1.14"/><rect class="cls-1" x="199.29" y="507.7" width="36.94" height="2.45" rx="1.14"/><rect class="cls-1" x="503.41" y="285.26" width="137.8" height="243.39" rx="4.98"/><path class="cls-2" d="M629,359H589a1.33,1.33,0,0,1-1.32-1.33h0a1.32,1.32,0,0,1,1.32-1.32h40a1.32,1.32,0,0,1,1.32,1.32h0A1.33,1.33,0,0,1,629,359Z" transform="translate(0 -62.56)"/><path class="cls-2" d="M629,365.08H589a1.32,1.32,0,0,1-1.32-1.32h0a1.32,1.32,0,0,1,1.32-1.32h40a1.32,1.32,0,0,1,1.32,1.32h0A1.32,1.32,0,0,1,629,365.08Z" transform="translate(0 -62.56)"/><path class="cls-2" d="M629,371.12H589a1.32,1.32,0,0,1-1.32-1.32h0a1.32,1.32,0,0,1,1.32-1.32h40a1.32,1.32,0,0,1,1.32,1.32h0A1.32,1.32,0,0,1,629,371.12Z" transform="translate(0 -62.56)"/><path class="cls-2" d="M629,377.17H589a1.32,1.32,0,0,1-1.32-1.32h0a1.33,1.33,0,0,1,1.32-1.33h40a1.33,1.33,0,0,1,1.32,1.33h0A1.32,1.32,0,0,1,629,377.17Z" transform="translate(0 -62.56)"/><path class="cls-2" d="M629,383.21H589a1.32,1.32,0,0,1-1.32-1.32h0a1.32,1.32,0,0,1,1.32-1.32h40a1.32,1.32,0,0,1,1.32,1.32h0A1.32,1.32,0,0,1,629,383.21Z" transform="translate(0 -62.56)"/><path class="cls-2" d="M629,389.26H589a1.33,1.33,0,0,1-1.32-1.33h0a1.32,1.32,0,0,1,1.32-1.32h40a1.32,1.32,0,0,1,1.32,1.32h0A1.33,1.33,0,0,1,629,389.26Z" transform="translate(0 -62.56)"/><path class="cls-2" d="M629,395.3H589a1.32,1.32,0,0,1-1.32-1.32h0a1.32,1.32,0,0,1,1.32-1.32h40a1.32,1.32,0,0,1,1.32,1.32h0A1.32,1.32,0,0,1,629,395.3Z" transform="translate(0 -62.56)"/><path class="cls-2" d="M629,510.22H589a1.33,1.33,0,0,1-1.32-1.33h0a1.32,1.32,0,0,1,1.32-1.32h40a1.32,1.32,0,0,1,1.32,1.32h0A1.33,1.33,0,0,1,629,510.22Z" transform="translate(0 -62.56)"/><path class="cls-2" d="M629,516.26H589a1.32,1.32,0,0,1-1.32-1.32h0a1.32,1.32,0,0,1,1.32-1.32h40a1.32,1.32,0,0,1,1.32,1.32h0A1.32,1.32,0,0,1,629,516.26Z" transform="translate(0 -62.56)"/><path class="cls-2" d="M629,522.3H589a1.32,1.32,0,0,1-1.32-1.32h0a1.32,1.32,0,0,1,1.32-1.32h40a1.32,1.32,0,0,1,1.32,1.32h0A1.32,1.32,0,0,1,629,522.3Z" transform="translate(0 -62.56)"/><path class="cls-2" d="M629,528.35H589a1.32,1.32,0,0,1-1.32-1.32h0a1.32,1.32,0,0,1,1.32-1.32h40a1.32,1.32,0,0,1,1.32,1.32h0A1.32,1.32,0,0,1,629,528.35Z" transform="translate(0 -62.56)"/><path class="cls-2" d="M629,534.39H589a1.32,1.32,0,0,1-1.32-1.32h0a1.32,1.32,0,0,1,1.32-1.32h40a1.32,1.32,0,0,1,1.32,1.32h0A1.32,1.32,0,0,1,629,534.39Z" transform="translate(0 -62.56)"/><path class="cls-2" d="M629,540.44H589a1.33,1.33,0,0,1-1.32-1.33h0a1.32,1.32,0,0,1,1.32-1.32h40a1.32,1.32,0,0,1,1.32,1.32h0A1.33,1.33,0,0,1,629,540.44Z" transform="translate(0 -62.56)"/><path class="cls-2" d="M629,546.48H589a1.32,1.32,0,0,1-1.32-1.32h0a1.32,1.32,0,0,1,1.32-1.32h40a1.32,1.32,0,0,1,1.32,1.32h0A1.32,1.32,0,0,1,629,546.48Z" transform="translate(0 -62.56)"/><path class="cls-2" d="M629,553.26H589a1.32,1.32,0,0,1-1.32-1.32h0a1.32,1.32,0,0,1,1.32-1.32h40a1.32,1.32,0,0,1,1.32,1.32h0A1.32,1.32,0,0,1,629,553.26Z" transform="translate(0 -62.56)"/><path class="cls-2" d="M629,559.31H589a1.32,1.32,0,0,1-1.32-1.32h0a1.32,1.32,0,0,1,1.32-1.32h40a1.32,1.32,0,0,1,1.32,1.32h0A1.32,1.32,0,0,1,629,559.31Z" transform="translate(0 -62.56)"/><path class="cls-2" d="M629,565.35H589a1.32,1.32,0,0,1-1.32-1.32h0a1.32,1.32,0,0,1,1.32-1.32h40a1.32,1.32,0,0,1,1.32,1.32h0A1.32,1.32,0,0,1,629,565.35Z" transform="translate(0 -62.56)"/><path class="cls-2" d="M629,571.4H589a1.33,1.33,0,0,1-1.32-1.32h0a1.33,1.33,0,0,1,1.32-1.33h40a1.33,1.33,0,0,1,1.32,1.33h0A1.33,1.33,0,0,1,629,571.4Z" transform="translate(0 -62.56)"/><path class="cls-2" d="M629,577.44H589a1.32,1.32,0,0,1-1.32-1.32h0A1.32,1.32,0,0,1,589,574.8h40a1.32,1.32,0,0,1,1.32,1.32h0A1.32,1.32,0,0,1,629,577.44Z" transform="translate(0 -62.56)"/><path class="cls-2" d="M629,583.48H589a1.32,1.32,0,0,1-1.32-1.32h0a1.32,1.32,0,0,1,1.32-1.32h40a1.32,1.32,0,0,1,1.32,1.32h0A1.32,1.32,0,0,1,629,583.48Z" transform="translate(0 -62.56)"/><path class="cls-2" d="M629,401.34H589a1.32,1.32,0,0,1-1.32-1.32h0A1.32,1.32,0,0,1,589,398.7h40a1.32,1.32,0,0,1,1.32,1.32h0A1.32,1.32,0,0,1,629,401.34Z" transform="translate(0 -62.56)"/><path class="cls-2" d="M629,407.39H589a1.32,1.32,0,0,1-1.32-1.32h0a1.33,1.33,0,0,1,1.32-1.33h40a1.33,1.33,0,0,1,1.32,1.33h0A1.32,1.32,0,0,1,629,407.39Z" transform="translate(0 -62.56)"/><path class="cls-2" d="M629,413.43H589a1.32,1.32,0,0,1-1.32-1.32h0a1.32,1.32,0,0,1,1.32-1.32h40a1.32,1.32,0,0,1,1.32,1.32h0A1.32,1.32,0,0,1,629,413.43Z" transform="translate(0 -62.56)"/><path class="cls-2" d="M629,419.48H589a1.33,1.33,0,0,1-1.32-1.33h0a1.32,1.32,0,0,1,1.32-1.32h40a1.32,1.32,0,0,1,1.32,1.32h0A1.33,1.33,0,0,1,629,419.48Z" transform="translate(0 -62.56)"/><path class="cls-2" d="M629,425.52H589a1.32,1.32,0,0,1-1.32-1.32h0a1.32,1.32,0,0,1,1.32-1.32h40a1.32,1.32,0,0,1,1.32,1.32h0A1.32,1.32,0,0,1,629,425.52Z" transform="translate(0 -62.56)"/><rect class="cls-2" x="587.71" y="366.36" width="42.64" height="2.64" rx="1.32"/><path class="cls-2" d="M629,437.61H589a1.32,1.32,0,0,1-1.32-1.32h0A1.33,1.33,0,0,1,589,435h40a1.33,1.33,0,0,1,1.32,1.33h0A1.32,1.32,0,0,1,629,437.61Z" transform="translate(0 -62.56)"/><rect class="cls-2" x="587.71" y="378.45" width="42.64" height="2.64" rx="1.32"/><path class="cls-2" d="M629,449.7H589a1.33,1.33,0,0,1-1.32-1.33h0a1.32,1.32,0,0,1,1.32-1.32h40a1.32,1.32,0,0,1,1.32,1.32h0A1.33,1.33,0,0,1,629,449.7Z" transform="translate(0 -62.56)"/><path class="cls-2" d="M575,463.39H515.58a1.33,1.33,0,0,1-1.32-1.33h0a1.32,1.32,0,0,1,1.32-1.32H575a1.32,1.32,0,0,1,1.32,1.32h0A1.33,1.33,0,0,1,575,463.39Z" transform="translate(0 -62.56)"/><path class="cls-2" d="M575,469.43H515.58a1.32,1.32,0,0,1-1.32-1.32h0a1.32,1.32,0,0,1,1.32-1.32H575a1.32,1.32,0,0,1,1.32,1.32h0A1.32,1.32,0,0,1,575,469.43Z" transform="translate(0 -62.56)"/><path class="cls-2" d="M575,475.47H515.58a1.32,1.32,0,0,1-1.32-1.32h0a1.32,1.32,0,0,1,1.32-1.32H575a1.32,1.32,0,0,1,1.32,1.32h0A1.32,1.32,0,0,1,575,475.47Z" transform="translate(0 -62.56)"/><path class="cls-2" d="M575,481.52H515.58a1.32,1.32,0,0,1-1.32-1.32h0a1.33,1.33,0,0,1,1.32-1.33H575a1.33,1.33,0,0,1,1.32,1.33h0A1.32,1.32,0,0,1,575,481.52Z" transform="translate(0 -62.56)"/><path class="cls-2" d="M575,487.56H515.58a1.32,1.32,0,0,1-1.32-1.32h0a1.32,1.32,0,0,1,1.32-1.32H575a1.32,1.32,0,0,1,1.32,1.32h0A1.32,1.32,0,0,1,575,487.56Z" transform="translate(0 -62.56)"/><path class="cls-2" d="M575,493.6H515.58a1.32,1.32,0,0,1-1.32-1.32h0a1.32,1.32,0,0,1,1.32-1.32H575a1.32,1.32,0,0,1,1.32,1.32h0A1.32,1.32,0,0,1,575,493.6Z" transform="translate(0 -62.56)"/><path class="cls-2" d="M575,499.65H515.58a1.32,1.32,0,0,1-1.32-1.32h0a1.32,1.32,0,0,1,1.32-1.32H575a1.32,1.32,0,0,1,1.32,1.32h0A1.32,1.32,0,0,1,575,499.65Z" transform="translate(0 -62.56)"/><path class="cls-2" d="M575,505.69H515.58a1.32,1.32,0,0,1-1.32-1.32h0a1.32,1.32,0,0,1,1.32-1.32H575a1.32,1.32,0,0,1,1.32,1.32h0A1.32,1.32,0,0,1,575,505.69Z" transform="translate(0 -62.56)"/><path class="cls-2" d="M575,511.74H515.58a1.32,1.32,0,0,1-1.32-1.32h0a1.33,1.33,0,0,1,1.32-1.33H575a1.33,1.33,0,0,1,1.32,1.33h0A1.32,1.32,0,0,1,575,511.74Z" transform="translate(0 -62.56)"/><path class="cls-2" d="M575,517.78H515.58a1.32,1.32,0,0,1-1.32-1.32h0a1.32,1.32,0,0,1,1.32-1.32H575a1.32,1.32,0,0,1,1.32,1.32h0A1.32,1.32,0,0,1,575,517.78Z" transform="translate(0 -62.56)"/><path class="cls-2" d="M575,523.82H515.58a1.32,1.32,0,0,1-1.32-1.32h0a1.32,1.32,0,0,1,1.32-1.32H575a1.32,1.32,0,0,1,1.32,1.32h0A1.32,1.32,0,0,1,575,523.82Z" transform="translate(0 -62.56)"/><path class="cls-2" d="M575,529.87H515.58a1.32,1.32,0,0,1-1.32-1.32h0a1.32,1.32,0,0,1,1.32-1.32H575a1.32,1.32,0,0,1,1.32,1.32h0A1.32,1.32,0,0,1,575,529.87Z" transform="translate(0 -62.56)"/><path class="cls-2" d="M575,535.91H515.58a1.32,1.32,0,0,1-1.32-1.32h0a1.32,1.32,0,0,1,1.32-1.32H575a1.32,1.32,0,0,1,1.32,1.32h0A1.32,1.32,0,0,1,575,535.91Z" transform="translate(0 -62.56)"/><path class="cls-2" d="M575,542H515.58a1.32,1.32,0,0,1-1.32-1.32h0a1.33,1.33,0,0,1,1.32-1.33H575a1.33,1.33,0,0,1,1.32,1.33h0A1.32,1.32,0,0,1,575,542Z" transform="translate(0 -62.56)"/><path class="cls-2" d="M575,548H515.58a1.32,1.32,0,0,1-1.32-1.32h0a1.32,1.32,0,0,1,1.32-1.32H575a1.32,1.32,0,0,1,1.32,1.32h0A1.32,1.32,0,0,1,575,548Z" transform="translate(0 -62.56)"/><path class="cls-2" d="M575,554H515.58a1.32,1.32,0,0,1-1.32-1.32h0a1.32,1.32,0,0,1,1.32-1.32H575a1.32,1.32,0,0,1,1.32,1.32h0A1.32,1.32,0,0,1,575,554Z" transform="translate(0 -62.56)"/><path class="cls-2" d="M575,559.69H515.58a1.32,1.32,0,0,1-1.32-1.32h0a1.32,1.32,0,0,1,1.32-1.32H575a1.32,1.32,0,0,1,1.32,1.32h0A1.32,1.32,0,0,1,575,559.69Z" transform="translate(0 -62.56)"/><path class="cls-2" d="M575,565.73H515.58a1.32,1.32,0,0,1-1.32-1.32h0a1.32,1.32,0,0,1,1.32-1.32H575a1.32,1.32,0,0,1,1.32,1.32h0A1.32,1.32,0,0,1,575,565.73Z" transform="translate(0 -62.56)"/><path class="cls-2" d="M575,571.78H515.58a1.32,1.32,0,0,1-1.32-1.32h0a1.33,1.33,0,0,1,1.32-1.33H575a1.33,1.33,0,0,1,1.32,1.33h0A1.32,1.32,0,0,1,575,571.78Z" transform="translate(0 -62.56)"/><path class="cls-2" d="M575,577.82H515.58a1.32,1.32,0,0,1-1.32-1.32h0a1.32,1.32,0,0,1,1.32-1.32H575a1.32,1.32,0,0,1,1.32,1.32h0A1.32,1.32,0,0,1,575,577.82Z" transform="translate(0 -62.56)"/><path class="cls-2" d="M575,583.87H515.58a1.33,1.33,0,0,1-1.32-1.33h0a1.32,1.32,0,0,1,1.32-1.32H575a1.32,1.32,0,0,1,1.32,1.32h0A1.33,1.33,0,0,1,575,583.87Z" transform="translate(0 -62.56)"/><rect class="cls-2" x="587.71" y="397.85" width="42.64" height="39.56" rx="1.13"/><rect class="cls-2" x="514.26" y="293.83" width="62.03" height="93.3" rx="1.53"/><rect class="cls-1" x="520.09" y="299.65" width="50.37" height="27.05" rx="0.92"/><rect class="cls-1" x="520.09" y="329.98" width="50.37" height="27.05" rx="0.92"/><rect class="cls-1" x="520.09" y="360.32" width="23.71" height="22.45" rx="0.8"/><rect class="cls-1" x="546.17" y="360.32" width="24.28" height="22.45" rx="0.81"/><rect class="cls-1" x="343.23" y="285.26" width="137.8" height="243.39" rx="4.98"/><rect class="cls-2" x="354.15" y="296.47" width="54.31" height="54.31" rx="2.29"/><rect class="cls-2" x="430.63" y="296.47" width="40.93" height="3.3" rx="1.2"/><rect class="cls-2" x="430.63" y="302.23" width="40.93" height="3.3" rx="1.2"/><rect class="cls-2" x="430.63" y="307.98" width="40.93" height="3.3" rx="1.2"/><rect class="cls-2" x="430.63" y="313.74" width="40.93" height="3.3" rx="1.2"/><rect class="cls-2" x="430.63" y="319.49" width="40.93" height="3.3" rx="1.2"/><rect class="cls-2" x="430.63" y="325.25" width="40.93" height="3.3" rx="1.2"/><rect class="cls-2" x="430.63" y="331" width="40.93" height="3.3" rx="1.2"/><rect class="cls-2" x="430.63" y="336.76" width="40.93" height="3.3" rx="1.2"/><rect class="cls-2" x="430.63" y="342.51" width="40.93" height="3.3" rx="1.2"/><rect class="cls-2" x="430.63" y="348.27" width="40.93" height="3.3" rx="1.2"/><circle class="cls-2" cx="418.82" cy="301.79" r="2.88"/><circle class="cls-2" cx="418.82" cy="324.42" r="2.88"/><path class="cls-2" d="M421.7,409.6a2.88,2.88,0,1,1-2.88-2.87A2.88,2.88,0,0,1,421.7,409.6Z" transform="translate(0 -62.56)"/><rect class="cls-2" x="354.15" y="359.64" width="117.41" height="6.72"/><rect class="cls-2" x="354.15" y="371.29" width="117.41" height="6.72"/><rect class="cls-2" x="354.15" y="382.94" width="61.8" height="6.72"/><rect class="cls-2" x="354.15" y="398.33" width="117.41" height="3.99" rx="0.89"/><rect class="cls-2" x="354.15" y="406.49" width="117.41" height="3.99" rx="0.89"/><rect class="cls-2" x="354.15" y="414.65" width="117.41" height="3.99" rx="0.89"/><rect class="cls-2" x="354.15" y="422.81" width="117.41" height="3.99" rx="0.89"/><rect class="cls-2" x="354.15" y="430.98" width="117.41" height="3.99" rx="0.89"/><rect class="cls-2" x="354.15" y="439.14" width="117.41" height="3.99" rx="0.89"/><rect class="cls-2" x="354.15" y="447.3" width="59.41" height="3.99" rx="0.64"/><rect class="cls-2" x="354.15" y="463.14" width="34.75" height="36.58" rx="3.2"/><rect class="cls-2" x="395.48" y="462.99" width="34.75" height="36.58" rx="3.2"/><rect class="cls-2" x="436.81" y="462.83" width="34.75" height="36.58" rx="3.2"/><rect class="cls-2" x="354.15" y="506.69" width="117.41" height="3.46" rx="0.53"/><rect class="cls-2" x="354.15" y="513.15" width="117.41" height="3.46" rx="0.53"/><rect class="cls-2" x="354.15" y="519.61" width="70.23" height="3.46" rx="0.41"/><path class="cls-8" d="M473.23,715.83a89.83,89.83,0,1,0-134.8,16.3,4.65,4.65,0,0,0-3.94,2.06L262.11,841.41a4.68,4.68,0,0,0,1.26,6.49l16.94,11.43a4.67,4.67,0,0,0,6.49-1.25l72.37-107.23a4.67,4.67,0,0,0,.44-4.42,89.86,89.86,0,0,0,113.62-30.6ZM355.31,730a77.68,77.68,0,1,1,58.26,11.87A77.19,77.19,0,0,1,355.31,730Z" transform="translate(0 -62.56)"/><circle class="cls-10" cx="397.21" cy="667.89" r="76.22" transform="translate(-355.93 413.93) rotate(-45)"/><circle class="cls-3" cx="397.21" cy="667.89" r="76.22" transform="translate(-355.93 413.93) rotate(-45)"/><g class="cls-11"><polygon class="cls-12" points="439.06 532.46 307.94 577.01 307.42 613.95 469.75 562.95 439.06 532.46"/><polygon class="cls-13" points="490.7 569.33 315.1 625.9 328.31 657.92 500.2 603.92 490.7 569.33"/><polygon class="cls-6" points="501.35 614.06 325.75 670.63 338.75 687.86 507.1 634.98 501.35 614.06"/></g><path class="cls-14" d="M479.94,724.2a89.82,89.82,0,1,0-134.8,16.3,4.67,4.67,0,0,0-3.94,2.06L268.82,849.78a4.68,4.68,0,0,0,1.26,6.49L287,867.7a4.67,4.67,0,0,0,6.49-1.26l72.38-107.22a4.67,4.67,0,0,0,.43-4.42,89.85,89.85,0,0,0,113.62-30.6ZM362,738.32a77.67,77.67,0,1,1,58.25,11.87A77.16,77.16,0,0,1,362,738.32Z" transform="translate(0 -62.56)"/><rect class="cls-1" x="477.18" y="353.27" width="346.7" height="70.01" rx="35"/><path class="cls-8" d="M784,485.31H507.3a36.08,36.08,0,1,1,0-72.15H784a36.08,36.08,0,1,1,0,72.15Zm-276.68-70a33.94,33.94,0,1,0,0,67.87H784a33.94,33.94,0,1,0,0-67.87Z" transform="translate(0 -62.56)"/><path class="cls-15" d="M523,440.62l2,7.91c.45,1.74.87,3.34,1.16,5h.1c.35-1.58.86-3.25,1.38-4.92l2.54-7.94h2.38L535,448.4c.58,1.87,1,3.5,1.38,5.08h.1a46.33,46.33,0,0,1,1.19-5.05l2.22-7.81h2.79l-5,15.56h-2.57l-2.38-7.43a51.78,51.78,0,0,1-1.39-5.11h-.06a48.79,48.79,0,0,1-1.41,5.15l-2.51,7.39h-2.57l-4.7-15.56Z" transform="translate(0 -62.56)"/><path class="cls-15" d="M547,440.62l2.06,7.91c.44,1.74.86,3.34,1.15,5h.1c.35-1.58.87-3.25,1.38-4.92l2.54-7.94h2.38L559,448.4c.58,1.87,1,3.5,1.38,5.08h.1a48.78,48.78,0,0,1,1.19-5.05l2.22-7.81h2.8l-5,15.56h-2.57l-2.38-7.43a49.14,49.14,0,0,1-1.38-5.11h-.07a46.49,46.49,0,0,1-1.41,5.15l-2.51,7.39h-2.57l-4.7-15.56Z" transform="translate(0 -62.56)"/><path class="cls-15" d="M571.06,440.62l2.06,7.91c.45,1.74.86,3.34,1.15,5h.1c.35-1.58.87-3.25,1.38-4.92l2.54-7.94h2.38l2.41,7.78c.58,1.87,1,3.5,1.39,5.08h.09a48.78,48.78,0,0,1,1.19-5.05l2.22-7.81h2.8l-5,15.56h-2.57l-2.38-7.43a49.14,49.14,0,0,1-1.38-5.11h-.07a44.4,44.4,0,0,1-1.41,5.15l-2.51,7.39h-2.57l-4.69-15.56Z" transform="translate(0 -62.56)"/><path class="cls-15" d="M591.67,454.51a1.9,1.9,0,0,1,1.93-2,2,2,0,1,1-1.93,2Z" transform="translate(0 -62.56)"/><path class="cls-15" d="M598.62,453.29a7.44,7.44,0,0,0,3.72,1.12c2.06,0,3-1,3-2.31s-.81-2.09-2.9-2.86c-2.79-1-4.11-2.54-4.11-4.41,0-2.51,2-4.56,5.37-4.56a7.78,7.78,0,0,1,3.82,1l-.7,2.06a6,6,0,0,0-3.19-.9c-1.67,0-2.6,1-2.6,2.12s.93,1.87,3,2.64c2.7,1,4.08,2.38,4.08,4.69,0,2.73-2.12,4.66-5.82,4.66a8.9,8.9,0,0,1-4.37-1.06Z" transform="translate(0 -62.56)"/><path class="cls-15" d="M611.73,445.7c0-2-.06-3.6-.12-5.08h2.54l.12,2.67h.07a6.11,6.11,0,0,1,5.53-3c3.76,0,6.59,3.18,6.59,7.91,0,5.59-3.41,8.35-7.07,8.35a5.46,5.46,0,0,1-4.79-2.44h-.07v8.46h-2.8Zm2.8,4.15a6.62,6.62,0,0,0,.13,1.15,4.36,4.36,0,0,0,4.24,3.32c3,0,4.73-2.45,4.73-6,0-3.11-1.64-5.78-4.63-5.78a4.52,4.52,0,0,0-4.28,3.5,4.93,4.93,0,0,0-.19,1.16Z" transform="translate(0 -62.56)"/><path class="cls-15" d="M644.11,448.27c0,5.76-4,8.26-7.75,8.26-4.21,0-7.45-3.08-7.45-8,0-5.21,3.4-8.26,7.71-8.26C641.09,440.27,644.11,443.51,644.11,448.27Zm-12.34.16c0,3.41,2,6,4.72,6s4.73-2.54,4.73-6c0-2.64-1.32-6-4.66-6S631.77,445.47,631.77,448.43Z" transform="translate(0 -62.56)"/><path class="cls-15" d="M651.09,436.15v4.47h4v2.15h-4v8.4c0,1.92.55,3,2.12,3a6.06,6.06,0,0,0,1.64-.2l.13,2.13a7,7,0,0,1-2.51.38,3.92,3.92,0,0,1-3.05-1.19c-.8-.83-1.09-2.22-1.09-4.05v-8.49h-2.41v-2.15h2.41v-3.73Z" transform="translate(0 -62.56)"/><path class="cls-15" d="M658.33,444.83c0-1.61,0-2.92-.13-4.21h2.47l.13,2.51h.1a5.36,5.36,0,0,1,4.89-2.86,4.6,4.6,0,0,1,4.4,3.11h.06a6.6,6.6,0,0,1,1.74-2,5.29,5.29,0,0,1,3.44-1.09c2.06,0,5.11,1.35,5.11,6.75v9.16h-2.76v-8.81c0-3-1.1-4.79-3.38-4.79a3.65,3.65,0,0,0-3.34,2.57,4.64,4.64,0,0,0-.23,1.42v9.61h-2.76v-9.32c0-2.48-1.1-4.28-3.25-4.28a3.87,3.87,0,0,0-3.5,2.83,3.92,3.92,0,0,0-.23,1.38v9.39h-2.76Z" transform="translate(0 -62.56)"/><path class="cls-15" d="M688.29,436.25a1.66,1.66,0,0,1-1.8,1.73,1.68,1.68,0,0,1-1.7-1.73,1.72,1.72,0,0,1,1.77-1.77A1.67,1.67,0,0,1,688.29,436.25Zm-3.15,19.93V440.62H688v15.56Z" transform="translate(0 -62.56)"/><path class="cls-15" d="M694.24,448.91c.07,3.83,2.51,5.41,5.34,5.41a10.21,10.21,0,0,0,4.31-.81l.48,2a12.64,12.64,0,0,1-5.18,1c-4.79,0-7.65-3.15-7.65-7.84s2.77-8.39,7.3-8.39c5.08,0,6.43,4.47,6.43,7.33a8.92,8.92,0,0,1-.1,1.31Zm8.3-2c0-1.8-.74-4.6-3.92-4.6-2.87,0-4.12,2.64-4.34,4.6Z" transform="translate(0 -62.56)"/><path class="cls-15" d="M708.39,453.29a7.51,7.51,0,0,0,3.73,1.12c2.06,0,3-1,3-2.31s-.8-2.09-2.89-2.86c-2.8-1-4.12-2.54-4.12-4.41,0-2.51,2-4.56,5.37-4.56a7.83,7.83,0,0,1,3.83,1l-.71,2.06a6,6,0,0,0-3.18-.9c-1.67,0-2.61,1-2.61,2.12s.94,1.87,3,2.64c2.7,1,4.09,2.38,4.09,4.69,0,2.73-2.13,4.66-5.82,4.66a8.94,8.94,0,0,1-4.38-1.06Z" transform="translate(0 -62.56)"/><path class="cls-15" d="M720.48,454.51a1.91,1.91,0,0,1,1.93-2,2,2,0,1,1-1.93,2Z" transform="translate(0 -62.56)"/><path class="cls-15" d="M738.91,455.6a10.37,10.37,0,0,1-4.47.9c-4.7,0-7.75-3.18-7.75-7.94s3.28-8.26,8.36-8.26a9.55,9.55,0,0,1,3.92.8l-.64,2.19a6.54,6.54,0,0,0-3.28-.74c-3.57,0-5.5,2.64-5.5,5.88,0,3.6,2.31,5.82,5.4,5.82a8.06,8.06,0,0,0,3.47-.77Z" transform="translate(0 -62.56)"/><path class="cls-15" d="M756.11,448.27c0,5.76-4,8.26-7.75,8.26-4.21,0-7.46-3.08-7.46-8,0-5.21,3.41-8.26,7.72-8.26S756.11,443.51,756.11,448.27Zm-12.35.16c0,3.41,2,6,4.73,6s4.72-2.54,4.72-6c0-2.64-1.31-6-4.66-6S743.76,445.47,743.76,448.43Z" transform="translate(0 -62.56)"/><path class="cls-15" d="M759.68,444.83c0-1.61,0-2.92-.13-4.21H762l.12,2.51h.1a5.37,5.37,0,0,1,4.89-2.86,4.59,4.59,0,0,1,4.4,3.11h.07a6.45,6.45,0,0,1,1.73-2,5.31,5.31,0,0,1,3.44-1.09c2.06,0,5.11,1.35,5.11,6.75v9.16h-2.76v-8.81c0-3-1.09-4.79-3.38-4.79a3.67,3.67,0,0,0-3.34,2.57,4.65,4.65,0,0,0-.22,1.42v9.61h-2.77v-9.32c0-2.48-1.09-4.28-3.25-4.28a3.88,3.88,0,0,0-3.5,2.83,3.92,3.92,0,0,0-.23,1.38v9.39h-2.76Z" transform="translate(0 -62.56)"/><path class="cls-8" d="M151.39,866.51h-33.8a2.26,2.26,0,0,0-2.16,2.91l14.79,49.38a2.24,2.24,0,0,0,2.16,1.61H161a2.26,2.26,0,0,0,2.16-1.61l14.79-49.38a2.26,2.26,0,0,0-2.16-2.91Z" transform="translate(0 -62.56)"/><path class="cls-16" d="M170.5,842.45a15.45,15.45,0,0,1,4.15-6.6c2-1.69,5-2.44,7.32-1.22,1.71.9,3.48,2.81,5.17,1.87,1.05-.59,1.28-2,1.35-3.17.23-3.91.18-8.32,3-11.07s7.19-2.66,10.93-1.71c1.76.45,3.71,1,5.32.19a5.56,5.56,0,0,0,2-2.1c1.79-2.93,2.93-6.68,6.06-8.08,5.05-2.25,10.93,3.44,16.12,1.55,2-.74,3.76-2.61,5.91-2.41a4.6,4.6,0,0,1,2.76,1.5,7.42,7.42,0,0,1,0,9.85c-3.31,3.5-9.39,3-12.74,6.47s-3,9.36-6.87,11.81c-3.31,2.06-7.77.37-11.44,1.67-2.95,1-4.88,3.8-6.78,6.28s-4.34,5-7.46,5.19c-1.64.1-3.27-.47-4.91-.32-4.7.43-7.32,6.38-12,7.08-3.13.47-5.82-1.62-8-3.61a6.15,6.15,0,0,1-2-2.83,8.92,8.92,0,0,1,.24-4.26A45.76,45.76,0,0,1,170.5,842.45Z" transform="translate(0 -62.56)"/><path class="cls-16" d="M136.77,832.7c-2.56-1.91-4.12-5.58-2.6-8.39.74-1.37,2.05-2.31,3.09-3.47s1.84-2.81,1.22-4.24a5.28,5.28,0,0,0-1.49-1.74,23.19,23.19,0,0,1-5.55-6.15c-1.32-2.44-1.69-5.59-.23-8,1.1-1.78,3-2.84,4.71-4.1s3.26-3.06,3.12-5.16c-.17-2.6-3-5-1.94-7.37s5.41-2.35,6.11-5c.35-1.3-.43-2.6-.75-3.9a5.76,5.76,0,0,1,11.16-2.89c.55,2,0,4.22.79,6.14,1,2.49,4,3.68,5.27,6,2.37,4.35-1.94,9.5-1.58,14.44.38,5.23,6,9.67,4.52,14.71-.56,2-2.14,3.53-2.69,5.51-.66,2.36.26,4.82.92,7.18s1,5.15-.61,7c-1.17,1.38-3.07,1.87-4.86,2.15a32.17,32.17,0,0,1-14.69-1A13.1,13.1,0,0,1,136.77,832.7Z" transform="translate(0 -62.56)"/><path class="cls-8" d="M146.56,878.93a.66.66,0,0,1-.33-.09.63.63,0,0,1-.2-.87,81.79,81.79,0,0,1,16.8-19.4c7.27-6.12,15.58-11,23.61-15.63L241,811.21a.62.62,0,0,1,.86.23.63.63,0,0,1-.23.86L187.08,844c-8,4.64-16.25,9.45-23.43,15.5a80.39,80.39,0,0,0-16.55,19.1A.62.62,0,0,1,146.56,878.93Z" transform="translate(0 -62.56)"/><path class="cls-8" d="M148.32,876.24a.63.63,0,0,1-.63-.61c-.94-31.74-.24-75.32.51-106.28a.63.63,0,1,1,1.26,0c-.75,31-1.44,74.5-.51,106.21a.63.63,0,0,1-.61.65Z" transform="translate(0 -62.56)"/><path class="cls-16" d="M116.84,859.12c-3.68-.4-7.42-2.84-8.08-6.49-.53-2.91.66-6.65-1.76-8.36a5.49,5.49,0,0,0-3-.77c-3.74-.18-7.86.31-10.92-1.86-4.45-3.15-4-9.7-4.37-15.15a5.75,5.75,0,0,0-1.34-3.88c-1.08-1-2.71-1.15-4.17-1.48a12.6,12.6,0,0,1-9.53-11.8,6.81,6.81,0,0,1,1.46-4.66A6.23,6.23,0,0,1,78,802.94a9.63,9.63,0,0,1,9.86,2.82c1.48,1.71,2.33,3.93,4,5.45,4.72,4.3,12.47.77,18.54,2.75a10.6,10.6,0,0,1,6.89,7.58c.67,3,0,6.39,1.5,9.11,2.53,4.67,9.19,4.41,14.1,6.47a6.19,6.19,0,0,1,3,2.28,6.49,6.49,0,0,1,.78,2.84,16.88,16.88,0,0,1-3.3,11.25,11.46,11.46,0,0,1-4.15,3.83c-1.27.56-2.76.36-4.1.68C122.4,858.67,119.74,859.44,116.84,859.12Z" transform="translate(0 -62.56)"/><path class="cls-8" d="M145,879.84a.63.63,0,0,1-.56-.33c-8.73-16.33-27.63-37.9-36.72-48.27a69.3,69.3,0,0,0-8.81-8.91,74,74,0,0,0-8.82-5.66c-5.51-3.18-11.22-6.47-14.61-12a.63.63,0,0,1,1.08-.66c3.22,5.24,8.54,8.3,14.17,11.55a74.59,74.59,0,0,1,9,5.76,69.92,69.92,0,0,1,9,9.07c9.12,10.4,28.08,32,36.89,48.5a.65.65,0,0,1-.26.86A.66.66,0,0,1,145,879.84Z" transform="translate(0 -62.56)"/><path class="cls-16" d="M841.74,538.48s-31.3,58.68-36.32,63.41-75.95,24.25-75.95,24.25l2.8,10.28s87.86,2,92.33,0,30.27-24.93,30.27-24.93Z" transform="translate(0 -62.56)"/><polygon class="cls-17" points="798.52 827.88 800.66 840.77 816.98 840.77 816.03 826.01 798.52 827.88"/><polygon class="cls-17" points="739.86 825.28 740.75 842.84 755.31 841.71 757.47 825.41 739.86 825.28"/><path class="cls-18" d="M866,675.63s-103.59,34.68-119,50.12-9.31,162.7-9.31,162.7H759.8L791,767.28s125.56-2.79,139.13-26.63c17.9-31.45,4.23-72.4,4.23-72.4Z" transform="translate(0 -62.56)"/><path class="cls-8" d="M872.33,683.8S786.19,734,775.25,750.63s21.68,140,21.68,140l20.18-2.16,5.19-108.87S934,753.83,941.69,730c10.17-31.42-9.63-65.47-9.63-65.47Z" transform="translate(0 -62.56)"/><path class="cls-18" d="M757.74,900.86s-13.18,3.67-19.29,0L712,914.66a10.84,10.84,0,0,0-5.82,9.61v.28h52a2.58,2.58,0,0,0,2.55-2.94Z" transform="translate(0 -62.56)"/><path class="cls-8" d="M817.7,900.86s-13.19,3.67-19.3,0L772,914.66a10.85,10.85,0,0,0-5.82,9.61v.28h52a2.58,2.58,0,0,0,2.55-2.94Z" transform="translate(0 -62.56)"/><path class="cls-17" d="M867.14,522.8l-9.95-40.53h0c0-7.64-1.51-16.77-5.31-27.47a12.84,12.84,0,0,0-17.45-7.35l-19.28,8.84a12,12,0,0,0-6.7,13.8,187,187,0,0,1,4.19,21.11c.54,5.06,1.94,11,5.28,15.34a20.38,20.38,0,0,0,24.59,6.39l2.41,26.3Z" transform="translate(0 -62.56)"/><path class="cls-8" d="M819.47,488.66a2.46,2.46,0,0,1-2.42-2.69l1.54-15.74a.55.55,0,1,1,1.1.11l-1.54,15.74a1.36,1.36,0,0,0,.42,1.11,1.33,1.33,0,0,0,1.14.33l4.8-.83a.55.55,0,1,1,.19,1.09l-4.8.84A3,3,0,0,1,819.47,488.66Z" transform="translate(0 -62.56)"/><path class="cls-10" d="M831.18,488.62a35.29,35.29,0,0,1-13.35,7.23S828.71,502.49,831.18,488.62Z" transform="translate(0 -62.56)"/><path class="cls-8" d="M822,495a.56.56,0,0,1-.21-1.07,27.85,27.85,0,0,0,9.41-6.44.55.55,0,1,1,.83.73,28.1,28.1,0,0,1-9.82,6.73A.54.54,0,0,1,822,495Z" transform="translate(0 -62.56)"/><path class="cls-8" d="M815.46,473.25a2,2,0,1,1-1.93-2.39A2.19,2.19,0,0,1,815.46,473.25Z" transform="translate(0 -62.56)"/><ellipse class="cls-8" cx="826.43" cy="406.77" rx="1.93" ry="2.39"/><path class="cls-8" d="M808.11,464.59s21.31,1.78,30.64-5.36c0,0,.2,14.17,3.57,16.41s13.72,0,16.94,14.28a77.87,77.87,0,0,0,3.1-33.86c-2.58-18.26-14.09-27-25.2-26S785.07,446.28,808.11,464.59Z" transform="translate(0 -62.56)"/><ellipse class="cls-17" cx="848.44" cy="470.86" rx="9.91" ry="5.81" transform="translate(193.09 1123.9) rotate(-76.55)"/><path class="cls-8" d="M845.84,475a.56.56,0,0,1-.55-.53c-.3-6.28,4.72-11.42,4.93-11.63a.56.56,0,0,1,.79,0,.56.56,0,0,1,0,.79c0,.05-4.89,5-4.61,10.79a.55.55,0,0,1-.53.58Z" transform="translate(0 -62.56)"/><path class="cls-16" d="M867.15,516.78s61.73,26.05,73,160.52c0,0-26.61,16.14-91.72,6.77,0,0,1.75-14.53,1.14-20.49s-20-97.16-7.84-125.1Z" transform="translate(0 -62.56)"/><path class="cls-8" d="M842.51,513.49a.56.56,0,0,1-.51-.34.55.55,0,0,1,.3-.73c.08,0,6.23-2.77,9.76-12.37a.55.55,0,0,1,.71-.33.56.56,0,0,1,.33.71c-3.71,10.11-10.1,12.9-10.37,13A.57.57,0,0,1,842.51,513.49Z" transform="translate(0 -62.56)"/><path class="cls-16" d="M865.57,548.14s-19.4,49.62-25.14,57.19S747,627.14,747,627.14l5.18,14.25s89.88,5.18,100.85,0,35.57-22.88,42.48-47.92S887.39,536.92,865.57,548.14Z" transform="translate(0 -62.56)"/><path class="cls-8" d="M821.82,644.26c-29,0-67.21-2.18-69.63-2.32a.54.54,0,0,1-.52-.58.54.54,0,0,1,.58-.52c.9,0,89.87,5.11,100.58,0,9.3-4.39,35-21.5,42.19-47.57a.55.55,0,0,1,.68-.38.56.56,0,0,1,.39.68c-7.31,26.47-33.36,43.82-42.78,48.27C849.55,643.67,836.93,644.26,821.82,644.26Z" transform="translate(0 -62.56)"/><path class="cls-8" d="M747,627.7a.55.55,0,0,1-.09-1.1c30.24-4.92,88.59-15.76,93-21.6,5.64-7.42,24.88-56.57,25.07-57.06a.55.55,0,0,1,.72-.32.56.56,0,0,1,.31.72c-.79,2-19.48,49.78-25.21,57.33s-90.15,21.44-93.74,22Z" transform="translate(0 -62.56)"/><path class="cls-8" d="M842.51,602.47a.55.55,0,0,1-.55-.53c0-.39-1.83-39,0-53.87a.56.56,0,0,1,.62-.48.55.55,0,0,1,.48.62c-1.82,14.73,0,53.29,0,53.68a.55.55,0,0,1-.53.58Z" transform="translate(0 -62.56)"/><path class="cls-17" d="M748.66,629.54s-10.58-2.46-15.19-.65c-1.66.66-20.33,15.72-20.33,15.72h27.58l10.68-5.49Z" transform="translate(0 -62.56)"/><path class="cls-17" d="M730,628.23s-8.82-.67-11.68,0-17.52,7.36-17.52,8.19,1.49,2,3.44,1.52,18.43-5,18.43-5-9.39,4.6-10.76,6.55a30.5,30.5,0,0,0-2.64,5.07h17.3l5.66-8.19Z" transform="translate(0 -62.56)"/><path class="cls-8" d="M713.87,645.09l-.14,0a.48.48,0,0,1-.31-.6,9,9,0,0,1,2.22-3.41c1.61-1.61,14.28-10.31,14.82-10.68a.47.47,0,1,1,.54.78c-.13.09-13.14,9-14.69,10.57a8.51,8.51,0,0,0-2,3A.47.47,0,0,1,713.87,645.09Z" transform="translate(0 -62.56)"/><polygon class="cls-8" points="889.34 711.38 853.07 861.99 856.08 861.99 902.28 710.58 889.34 711.38"/><polygon class="cls-8" points="940.28 711.38 976.55 861.99 973.54 861.99 927.34 710.58 940.28 711.38"/><path class="cls-19" d="M857.63,767.83s53.25-26.8,78.61-66.9c13.31-21,14.86-76,25.85-76.88s21.12,16.9,24.5,36.33,3.38,94.1-21.12,107.45-109.23,19.28-115,16.74S842.72,776.44,857.63,767.83Z" transform="translate(0 -62.56)"/><path class="cls-19" d="M881,659.65H504.24a4.29,4.29,0,0,1-4.3-4.3h0a4.3,4.3,0,0,1,4.3-4.3H881a4.3,4.3,0,0,1,4.3,4.3h0A4.29,4.29,0,0,1,881,659.65Z" transform="translate(0 -62.56)"/><polygon class="cls-19" points="526.3 861.99 519.64 861.99 570.87 597.09 577.53 597.09 526.3 861.99"/><polygon class="cls-19" points="858.91 861.99 865.57 861.99 814.34 597.09 807.68 597.09 858.91 861.99"/><path class="cls-8" d="M641.25,644.61,597.72,543a2.85,2.85,0,0,0-2.62-1.73h0a2.85,2.85,0,0,0-2.62,4l45.33,105.79H745.44a3.22,3.22,0,0,0,3.22-3.22h0a3.22,3.22,0,0,0-3.22-3.22Z" transform="translate(0 -62.56)"/><path class="cls-8" d="M1072.21,925.14H7.79a1.43,1.43,0,1,1,0-2.86H1072.21a1.43,1.43,0,0,1,0,2.86Z" transform="translate(0 -62.56)"/><g id="Group_371" data-name="Group 371"><g id="Group_285" data-name="Group 285"><g id="Group_284" data-name="Group 284"><g id="Group_283" data-name="Group 283"><g id="Group_282" data-name="Group 282"><g id="Group_281" data-name="Group 281"><g id="Group_280" data-name="Group 280"><g id="Group_279" data-name="Group 279"><g id="Group_278" data-name="Group 278"><g id="Group_277" data-name="Group 277"><rect id="Rectangle_104" data-name="Rectangle 104" class="cls-20" x="813.09" y="209.04" width="89.66" height="93.46"/></g></g></g></g></g></g></g></g></g><g id="Group_302" data-name="Group 302"><g id="Group_293" data-name="Group 293"><g id="Group_292" data-name="Group 292"><g id="Group_291" data-name="Group 291"><g id="Group_290" data-name="Group 290"><g id="Group_289" data-name="Group 289"><g id="Group_288" data-name="Group 288"><g id="Group_287" data-name="Group 287"><g id="Group_286" data-name="Group 286"><rect id="Rectangle_105" data-name="Rectangle 105" class="cls-21" x="807.02" y="209.04" width="89.66" height="93.46"/></g></g></g></g></g></g></g></g><g id="Group_301" data-name="Group 301"><g id="Group_300" data-name="Group 300"><g id="Group_299" data-name="Group 299"><g id="Group_298" data-name="Group 298"><g id="Group_297" data-name="Group 297"><g id="Group_296" data-name="Group 296"><g id="Group_295" data-name="Group 295"><g id="Group_294" data-name="Group 294"><path id="Path_386" data-name="Path 386" class="cls-22" d="M896.7,365.09H807V271.57H896.7ZM807,365h89.6v-93.4H807Z" transform="translate(0 -62.56)"/></g></g></g></g></g></g></g></g></g><g id="Group_311" data-name="Group 311"><g id="Group_310" data-name="Group 310"><g id="Group_309" data-name="Group 309"><g id="Group_308" data-name="Group 308"><g id="Group_307" data-name="Group 307"><g id="Group_306" data-name="Group 306"><g id="Group_305" data-name="Group 305"><g id="Group_304" data-name="Group 304"><g id="Group_303" data-name="Group 303"><rect id="Rectangle_106" data-name="Rectangle 106" class="cls-23" x="819.07" y="221.6" width="65.55" height="68.33"/></g></g></g></g></g></g></g></g></g><g id="Group_321" data-name="Group 321"><g id="Group_320" data-name="Group 320"><g id="Group_319" data-name="Group 319"><g id="Group_318" data-name="Group 318"><g id="Group_317" data-name="Group 317"><g id="Group_316" data-name="Group 316"><g id="Group_315" data-name="Group 315"><g id="Group_314" data-name="Group 314"><g id="Group_313" data-name="Group 313"><g id="Group_312" data-name="Group 312"><path id="Path_387" data-name="Path 387" class="cls-22" d="M819.07,353a10.79,10.79,0,0,1-1.62,1.88c-1.05,1.11-2.52,2.6-4.17,4.23s-3.16,3.07-4.28,4.1a11,11,0,0,1-1.89,1.57,11,11,0,0,1,1.6-1.87c1.06-1.11,2.53-2.61,4.18-4.23s3.17-3.08,4.29-4.11A10.51,10.51,0,0,1,819.07,353Z" transform="translate(0 -62.56)"/></g></g></g></g></g></g></g></g></g></g><g id="Group_331" data-name="Group 331"><g id="Group_330" data-name="Group 330"><g id="Group_329" data-name="Group 329"><g id="Group_328" data-name="Group 328"><g id="Group_327" data-name="Group 327"><g id="Group_326" data-name="Group 326"><g id="Group_325" data-name="Group 325"><g id="Group_324" data-name="Group 324"><g id="Group_323" data-name="Group 323"><g id="Group_322" data-name="Group 322"><path id="Path_388" data-name="Path 388" class="cls-22" d="M884.62,352.78a10.79,10.79,0,0,1,1.88,1.62c1.11,1.05,2.6,2.52,4.22,4.17s3.08,3.16,4.1,4.28a10.57,10.57,0,0,1,1.58,1.89,10.61,10.61,0,0,1-1.87-1.6c-1.11-1.05-2.61-2.53-4.23-4.18s-3.08-3.17-4.11-4.29A10.18,10.18,0,0,1,884.62,352.78Z" transform="translate(0 -62.56)"/></g></g></g></g></g></g></g></g></g></g><g id="Group_341" data-name="Group 341"><g id="Group_340" data-name="Group 340"><g id="Group_339" data-name="Group 339"><g id="Group_338" data-name="Group 338"><g id="Group_337" data-name="Group 337"><g id="Group_336" data-name="Group 336"><g id="Group_335" data-name="Group 335"><g id="Group_334" data-name="Group 334"><g id="Group_333" data-name="Group 333"><g id="Group_332" data-name="Group 332"><path id="Path_389" data-name="Path 389" class="cls-22" d="M884.44,284.35a10.38,10.38,0,0,1,1.62-1.88c1.05-1.11,2.52-2.6,4.16-4.23s3.17-3.07,4.29-4.1a10.18,10.18,0,0,1,1.89-1.57,10.61,10.61,0,0,1-1.61,1.87c-1,1.1-2.52,2.6-4.18,4.23s-3.17,3.08-4.29,4.11A10.52,10.52,0,0,1,884.44,284.35Z" transform="translate(0 -62.56)"/></g></g></g></g></g></g></g></g></g></g><g id="Group_351" data-name="Group 351"><g id="Group_350" data-name="Group 350"><g id="Group_349" data-name="Group 349"><g id="Group_348" data-name="Group 348"><g id="Group_347" data-name="Group 347"><g id="Group_346" data-name="Group 346"><g id="Group_345" data-name="Group 345"><g id="Group_344" data-name="Group 344"><g id="Group_343" data-name="Group 343"><g id="Group_342" data-name="Group 342"><path id="Path_390" data-name="Path 390" class="cls-22" d="M818.89,284.51A10.33,10.33,0,0,1,817,282.9c-1.11-1-2.6-2.52-4.23-4.17s-3.07-3.17-4.1-4.28a10.17,10.17,0,0,1-1.57-1.9,10.61,10.61,0,0,1,1.87,1.61c1.1,1,2.6,2.52,4.23,4.18s3.08,3.17,4.11,4.29A10.52,10.52,0,0,1,818.89,284.51Z" transform="translate(0 -62.56)"/></g></g></g></g></g></g></g></g></g></g><g id="Group_361" data-name="Group 361"><g id="Group_360" data-name="Group 360"><g id="Group_359" data-name="Group 359"><g id="Group_358" data-name="Group 358"><g id="Group_357" data-name="Group 357"><g id="Group_356" data-name="Group 356"><g id="Group_355" data-name="Group 355"><g id="Group_354" data-name="Group 354"><g id="Group_353" data-name="Group 353"><g id="Group_352" data-name="Group 352"><path id="Path_391" data-name="Path 391" class="cls-22" d="M884.44,352.5c0-.11,0-.22,0-.33s0-.55,0-1c0-.85,0-2.09,0-3.69,0-3.23,0-7.94-.06-13.92,0-12-.08-29-.14-49.43l.26.25-65.37,0h0l.29-.29c0,25.07,0,48.54,0,68.33l-.25-.25,47.33.13,13.3.06,3.51,0h1.23l-.29,0h-.88l-3.47,0-13.24.06-47.49.13h-.25v-.25c0-19.78,0-43.25,0-68.33v-.29h.29l65.37,0h.25v.25c-.05,20.49-.09,37.59-.13,49.6,0,5.95,0,10.64-.06,13.87,0,1.57,0,2.79,0,3.64,0,.39,0,.7,0,.92A1.61,1.61,0,0,1,884.44,352.5Z" transform="translate(0 -62.56)"/></g></g></g></g></g></g></g></g></g></g><g id="Group_370" data-name="Group 370"><g id="Group_369" data-name="Group 369"><g id="Group_368" data-name="Group 368"><g id="Group_367" data-name="Group 367"><g id="Group_366" data-name="Group 366"><g id="Group_365" data-name="Group 365"><g id="Group_364" data-name="Group 364"><g id="Group_363" data-name="Group 363"><g id="Group_362" data-name="Group 362"><rect id="Rectangle_107" data-name="Rectangle 107" class="cls-24" x="840.91" y="244.83" width="21.87" height="21.87"/></g></g></g></g></g></g></g></g></g></g><g id="Group_1317" data-name="Group 1317"><g id="Group_285-2" data-name="Group 285-2"><g id="Group_284-2" data-name="Group 284-2"><g id="Group_283-2" data-name="Group 283-2"><g id="Group_282-2" data-name="Group 282-2"><g id="Group_281-2" data-name="Group 281-2"><g id="Group_280-2" data-name="Group 280-2"><g id="Group_279-2" data-name="Group 279-2"><g id="Group_278-2" data-name="Group 278-2"><g id="Group_277-2" data-name="Group 277-2"><rect id="Rectangle_104-2" data-name="Rectangle 104-2" class="cls-20" x="684.02" y="92.33" width="97.53" height="101.66"/></g></g></g></g></g></g></g></g></g><g id="Group_302-2" data-name="Group 302-2"><g id="Group_293-2" data-name="Group 293-2"><g id="Group_292-2" data-name="Group 292-2"><g id="Group_291-2" data-name="Group 291-2"><g id="Group_290-2" data-name="Group 290-2"><g id="Group_289-2" data-name="Group 289-2"><g id="Group_288-2" data-name="Group 288-2"><g id="Group_287-2" data-name="Group 287-2"><g id="Group_286-2" data-name="Group 286-2"><rect id="Rectangle_105-2" data-name="Rectangle 105-2" class="cls-21" x="677.42" y="92.33" width="97.53" height="101.66"/></g></g></g></g></g></g></g></g><g id="Group_301-2" data-name="Group 301-2"><g id="Group_300-2" data-name="Group 300-2"><g id="Group_299-2" data-name="Group 299-2"><g id="Group_298-2" data-name="Group 298-2"><g id="Group_297-2" data-name="Group 297-2"><g id="Group_296-2" data-name="Group 296-2"><g id="Group_295-2" data-name="Group 295-2"><g id="Group_294-2" data-name="Group 294-2"><path id="Path_386-2" data-name="Path 386-2" class="cls-22" d="M775,256.58H677.39V154.86H775Zm-97.52-.06h97.46V154.92H677.45Z" transform="translate(0 -62.56)"/></g></g></g></g></g></g></g></g></g><g id="Group_311-2" data-name="Group 311-2"><g id="Group_310-2" data-name="Group 310-2"><g id="Group_309-2" data-name="Group 309-2"><g id="Group_308-2" data-name="Group 308-2"><g id="Group_307-2" data-name="Group 307-2"><g id="Group_306-2" data-name="Group 306-2"><g id="Group_305-2" data-name="Group 305-2"><g id="Group_304-2" data-name="Group 304-2"><g id="Group_303-2" data-name="Group 303-2"><rect id="Rectangle_106-2" data-name="Rectangle 106-2" class="cls-23" x="690.53" y="106" width="71.31" height="74.33"/></g></g></g></g></g></g></g></g></g><g id="Group_321-2" data-name="Group 321-2"><g id="Group_320-2" data-name="Group 320-2"><g id="Group_319-2" data-name="Group 319-2"><g id="Group_318-2" data-name="Group 318-2"><g id="Group_317-2" data-name="Group 317-2"><g id="Group_316-2" data-name="Group 316-2"><g id="Group_315-2" data-name="Group 315-2"><g id="Group_314-2" data-name="Group 314-2"><g id="Group_313-2" data-name="Group 313-2"><g id="Group_312-2" data-name="Group 312-2"><path id="Path_387-2" data-name="Path 387-2" class="cls-22" d="M690.53,243.38a11.91,11.91,0,0,1-1.76,2.05c-1.14,1.2-2.74,2.82-4.54,4.59s-3.44,3.34-4.65,4.47a11.63,11.63,0,0,1-2.06,1.71,10.92,10.92,0,0,1,1.75-2c1.13-1.21,2.74-2.84,4.54-4.61s3.45-3.35,4.67-4.46A11.27,11.27,0,0,1,690.53,243.38Z" transform="translate(0 -62.56)"/></g></g></g></g></g></g></g></g></g></g><g id="Group_331-2" data-name="Group 331-2"><g id="Group_330-2" data-name="Group 330-2"><g id="Group_329-2" data-name="Group 329-2"><g id="Group_328-2" data-name="Group 328-2"><g id="Group_327-2" data-name="Group 327-2"><g id="Group_326-2" data-name="Group 326-2"><g id="Group_325-2" data-name="Group 325-2"><g id="Group_324-2" data-name="Group 324-2"><g id="Group_323-2" data-name="Group 323-2"><g id="Group_322-2" data-name="Group 322-2"><path id="Path_388-2" data-name="Path 388-2" class="cls-22" d="M761.83,243.2a11.09,11.09,0,0,1,2,1.76c1.2,1.14,2.83,2.74,4.59,4.53s3.35,3.44,4.47,4.66a11.63,11.63,0,0,1,1.71,2.06,11.3,11.3,0,0,1-2-1.75c-1.2-1.14-2.84-2.74-4.61-4.54s-3.35-3.45-4.46-4.67A11.27,11.27,0,0,1,761.83,243.2Z" transform="translate(0 -62.56)"/></g></g></g></g></g></g></g></g></g></g><g id="Group_341-2" data-name="Group 341-2"><g id="Group_340-2" data-name="Group 340-2"><g id="Group_339-2" data-name="Group 339-2"><g id="Group_338-2" data-name="Group 338-2"><g id="Group_337-2" data-name="Group 337-2"><g id="Group_336-2" data-name="Group 336-2"><g id="Group_335-2" data-name="Group 335-2"><g id="Group_334-2" data-name="Group 334-2"><g id="Group_333-2" data-name="Group 333-2"><g id="Group_332-2" data-name="Group 332-2"><path id="Path_389-2" data-name="Path 389-2" class="cls-22" d="M761.64,168.76a11.49,11.49,0,0,1,1.76-2c1.14-1.2,2.74-2.83,4.53-4.6s3.44-3.34,4.66-4.46a11.68,11.68,0,0,1,2.06-1.72,11.37,11.37,0,0,1-1.75,2c-1.14,1.2-2.74,2.83-4.54,4.6s-3.45,3.36-4.67,4.47A11.27,11.27,0,0,1,761.64,168.76Z" transform="translate(0 -62.56)"/></g></g></g></g></g></g></g></g></g></g><g id="Group_351-2" data-name="Group 351-2"><g id="Group_350-2" data-name="Group 350-2"><g id="Group_349-2" data-name="Group 349-2"><g id="Group_348-2" data-name="Group 348-2"><g id="Group_347-2" data-name="Group 347-2"><g id="Group_346-2" data-name="Group 346-2"><g id="Group_345-2" data-name="Group 345-2"><g id="Group_344-2" data-name="Group 344-2"><g id="Group_343-2" data-name="Group 343-2"><g id="Group_342-2" data-name="Group 342-2"><path id="Path_390-2" data-name="Path 390-2" class="cls-22" d="M690.33,168.94a12.23,12.23,0,0,1-2-1.76c-1.2-1.14-2.83-2.74-4.6-4.54s-3.34-3.44-4.46-4.65a11.68,11.68,0,0,1-1.72-2.06,11,11,0,0,1,2,1.75c1.2,1.13,2.83,2.74,4.6,4.54s3.35,3.45,4.47,4.67A10.83,10.83,0,0,1,690.33,168.94Z" transform="translate(0 -62.56)"/></g></g></g></g></g></g></g></g></g></g><g id="Group_361-2" data-name="Group 361-2"><g id="Group_360-2" data-name="Group 360-2"><g id="Group_359-2" data-name="Group 359-2"><g id="Group_358-2" data-name="Group 358-2"><g id="Group_357-2" data-name="Group 357-2"><g id="Group_356-2" data-name="Group 356-2"><g id="Group_355-2" data-name="Group 355-2"><g id="Group_354-2" data-name="Group 354-2"><g id="Group_353-2" data-name="Group 353-2"><g id="Group_352-2" data-name="Group 352-2"><path id="Path_391-2" data-name="Path 391-2" class="cls-22" d="M761.63,242.89c0-.12,0-.24,0-.37s0-.59,0-1q0-1.4,0-4c0-3.52,0-8.64-.07-15.14,0-13-.08-31.57-.14-53.77l.27.27-71.1,0h0l.32-.31c0,27.28,0,52.8,0,74.33l-.28-.27,51.49.13,14.46.07,3.83,0h1a2.06,2.06,0,0,1,.35,0h-1.28l-3.77,0-14.4.07-51.66.14h-.28v-.28c0-21.52,0-47,0-74.33v-.31h.32l71.11,0h.27v.27c-.06,22.28-.1,40.89-.14,53.95,0,6.48,0,11.58-.07,15.09q0,2.58,0,4c0,.43,0,.76,0,1A1.94,1.94,0,0,1,761.63,242.89Z" transform="translate(0 -62.56)"/></g></g></g></g></g></g></g></g></g></g><g id="Group_370-2" data-name="Group 370-2"><g id="Group_369-2" data-name="Group 369-2"><g id="Group_368-2" data-name="Group 368-2"><g id="Group_367-2" data-name="Group 367-2"><g id="Group_366-2" data-name="Group 366-2"><g id="Group_365-2" data-name="Group 365-2"><g id="Group_364-2" data-name="Group 364-2"><g id="Group_363-2" data-name="Group 363-2"><g id="Group_362-2" data-name="Group 362-2"><rect id="Rectangle_107-2" data-name="Rectangle 107-2" class="cls-24" x="714.28" y="131.26" width="23.79" height="23.79"/></g></g></g></g></g></g></g></g></g></g></svg>