<svg xmlns="http://www.w3.org/2000/svg" xmlns:xlink="http://www.w3.org/1999/xlink" viewBox="0 0 1624.37 1538.29"><defs><style>.cls-1{fill:none;}.cls-2{fill:#9192ff;}.cls-3{fill:#e8e8e8;}.cls-4{fill:#b3e8ff;}.cls-5{clip-path:url(#clip-path);}.cls-10,.cls-6{fill:#fff;}.cls-7{opacity:0.8;}.cls-8{fill:#fff2e0;opacity:0.7;}.cls-9{fill:#ffa121;}.cls-10{opacity:0.4;}.cls-11{fill:#d1d1ff;}.cls-12{fill:#008fdb;}.cls-13,.cls-20{fill:#1b1b43;}.cls-14{fill:#d1d1d1;}.cls-15{fill:#ffbc96;}.cls-16{fill:#d28572;}.cls-17{fill:#354046;}.cls-18{fill:#0a74a3;}.cls-19{fill:#263238;}.cls-20{opacity:0.3;}.cls-21{fill:#fe5b52;opacity:0.2;}.cls-22{fill:#c5c5ff;}.cls-23{fill:#424242;}.cls-24{fill:#1f1f35;}</style><clipPath id="clip-path" transform="translate(-189.56 -239.5)"><path class="cls-1" d="M990.78,1081.54a57.86,57.86,0,0,0,57.85,57.85H1691.2a57.86,57.86,0,0,0,57.85-57.85v-391H990.78Z"/></clipPath></defs><g id="OBJECTS"><path class="cls-2" d="M590.91,1138.43l-1.72-1.81L600,1126.27l1.73,1.8Zm21.68-20.77-1.76-1.78c3.53-3.47,7.06-7.05,10.52-10.65l1.8,1.74C619.68,1110.57,616.13,1114.17,612.59,1117.66ZM633.42,1096l-1.85-1.68c3.31-3.64,6.65-7.41,9.93-11.2l1.89,1.63C640.1,1088.54,636.75,1092.32,633.42,1096Zm19.65-22.75-1.93-1.58c3.12-3.8,6.27-7.74,9.35-11.69l2,1.54C659.36,1065.47,656.2,1069.42,653.07,1073.23Zm18.5-23.68-2-1.5c2.93-3.94,5.89-8,8.8-12.11l2,1.45C677.49,1041.5,674.52,1045.59,671.57,1049.55ZM689,1025l-2.07-1.4q4.2-6.2,8.27-12.48l2.1,1.36Q693.19,1018.82,689,1025Zm137-17.33a36.58,36.58,0,0,1-13.47-2.57l.92-2.32a34.19,34.19,0,0,0,12.55,2.39c.62-.06,1.08,0,1.62,0l.12,2.5C827.1,1007.7,826.41,1007.66,825.94,1007.71Zm16.6-4.27-1.25-2.17a27.14,27.14,0,0,0,10-10.07l2.17,1.25A29.75,29.75,0,0,1,842.54,1003.44Zm-137.23-3.61-2.12-1.32q3.94-6.36,7.77-12.8l2.15,1.28Q709.27,993.44,705.31,999.83Zm94.49-3.48a43.86,43.86,0,0,1-8.23-13l2.3-1a41.55,41.55,0,0,0,7.76,12.23Zm57.77-18.8-2.5-.06v-.66a25.89,25.89,0,0,0-2.21-10.62c-.37-.83-.79-1.65-1.24-2.44l2.18-1.23c.48.86.93,1.74,1.34,2.64a28.49,28.49,0,0,1,2.43,11.65Zm-135.91-2.62-1.92-1.61A95.54,95.54,0,0,1,730.4,962.5l1.63,1.89A93,93,0,0,0,721.66,974.93Zm66-6.35a62,62,0,0,1-.43-7.24,64.14,64.14,0,0,1,.51-8l2.48.31a63,63,0,0,0-.49,7.72,57,57,0,0,0,.42,6.94ZM744,955.64l-1.31-2.13a103.82,103.82,0,0,1,13.46-7l1,2.3A100.77,100.77,0,0,0,744,955.64ZM842,953.06A55,55,0,0,0,829.24,946l.93-2.32a57.57,57.57,0,0,1,13.36,7.44Zm-70.94-9.13-.66-2.41a108.74,108.74,0,0,1,14.88-2.94l.31,2.48A106.64,106.64,0,0,0,771.07,943.93Zm44-2.07a90.61,90.61,0,0,0-14.7-1.54l.06-2.5a93.31,93.31,0,0,1,15.11,1.58Zm-21.37-2.53-2.35-.84a75.62,75.62,0,0,1,6.6-13.73l2.13,1.31A72.79,72.79,0,0,0,793.71,939.33Zm15.29-25-1.84-1.7c.73-.78,1.48-1.55,2.24-2.31a81.37,81.37,0,0,1,9.15-7.78l1.48,2a78.17,78.17,0,0,0-8.87,7.54C810.42,912.83,809.7,913.58,809,914.33Zm23.66-17.43-1.11-2.24a92.5,92.5,0,0,1,14.11-5.6l.73,2.39A90,90,0,0,0,832.66,896.9Zm28.2-9.18-.62-2.42c4.89-1.25,9.75-2.57,14.45-3.9l.68,2.41C870.65,885.15,865.77,886.46,860.86,887.72Zm28.92-8.22-.75-2.38c4.82-1.52,9.6-3.11,14.2-4.71l.82,2.36C899.43,876.38,894.63,878,889.78,879.5Zm28.39-9.93-.9-2.33c4.68-1.82,9.33-3.72,13.83-5.66l1,2.29C927.56,865.83,922.88,867.74,918.17,869.57Zm27.62-11.93-1.08-2.25,13.49-6.55,1.09,2.25Zm27-13.11-1.09-2.25,13.49-6.56,1.09,2.25Zm27-13.12-1.09-2.25,13.49-6.56,1.09,2.25Zm27-13.12-1.09-2.24,13.49-6.56,1.09,2.25Zm27-13.11-1.09-2.25,13.49-6.56,1.09,2.25Z" transform="translate(-189.56 -239.5)"/><path class="cls-3" d="M1007.63,340.29a13,13,0,0,0,.06,1.53h328.77c-.86-27.1-24.45-48.83-53.38-48.83a55.76,55.76,0,0,0-25.58,6.13c.4-21.09-9.73-41.29-28.41-52.13-28-16.24-64.68-5.22-81.83,24.63a65.62,65.62,0,0,0-8.64,28.29c-13.67-6.25-30.61-10-49-10C1044.34,289.93,1007.63,312.49,1007.63,340.29Z" transform="translate(-189.56 -239.5)"/><path class="cls-4" d="M460.66,1108.54H189.56l0-1c.72-22.94,20.34-40.91,44.66-40.91a47.2,47.2,0,0,1,20,4.45c.18-17.56,9.18-33.55,23.75-42a47.13,47.13,0,0,1,36.12-4.57,52.81,52.81,0,0,1,32.18,25.09,54.52,54.52,0,0,1,7.1,22.24c11.54-5.05,25.1-7.71,39.29-7.71,37.56,0,68.11,18.93,68.11,42.19a12.37,12.37,0,0,1-.05,1.36Zm-269.15-1.87H458.94v-.31c0-22.23-29.71-40.32-66.24-40.32-14.43,0-28.17,2.8-39.73,8.1l-1.24.56-.09-1.35a52.53,52.53,0,0,0-6.95-22.78,51,51,0,0,0-31.05-24.21,45.29,45.29,0,0,0-34.69,4.38c-14.4,8.36-23.14,24.4-22.81,41.87l0,1.57-1.4-.71a45.06,45.06,0,0,0-20.52-4.93C211.29,1068.54,192.71,1085.21,191.51,1106.67Z" transform="translate(-189.56 -239.5)"/><g class="cls-5"><path class="cls-6" d="M990.78,1081.54a57.86,57.86,0,0,0,57.85,57.85H1691.2a57.86,57.86,0,0,0,57.85-57.85v-391H990.78Z" transform="translate(-189.56 -239.5)"/><path class="cls-4" d="M951.1,790.27C960,761.85,988,740,1018.65,737.73s61.9,15,75.31,41.77c16.31-.15,32.37,8.89,40.29,22.67a43.6,43.6,0,0,1-1.4,45c19.41,3.37,36.84,16.14,45.43,33.31a59.67,59.67,0,0,1-1.22,55c21.37-10.86,48.7-9.88,69.2,2.5s33.42,35.69,32.7,59c13.31-20.88,38.83-33.89,64.2-32.73s49.55,16.43,60.84,38.43c11.91-35.64,43.66-64.41,81.24-73.6s79.73,1.49,107.85,27.33c42.3,6.62,73.12,52.54,62.1,92.51,22.85,18.91,34.53,49.65,29.75,78.31s-25.84,54.26-53.66,65.21L903.59,1192l-62-277.63Z" transform="translate(-189.56 -239.5)"/><g class="cls-7"><path class="cls-6" d="M939.56,882.47c8.58-28.42,35.69-50.26,65.3-52.59s59.8,15,72.73,41.71a44,44,0,0,1,37.52,67.63,60.53,60.53,0,0,1,42.64,88.31,67.14,67.14,0,0,1,98.4,61.44c12.88-20.89,37.54-33.92,62-32.78s47.87,16.39,58.75,38.38c11.54-35.65,42.24-64.44,78.55-73.66s77,1.42,104.18,27.24c40.86,6.58,70.6,52.48,59.93,92.46,22.05,18.89,33.31,49.62,28.67,78.28s-25,54.28-51.89,65.25l-703.05.11-59.72-277.58Z" transform="translate(-189.56 -239.5)"/></g><path class="cls-8" d="M1498.5,703.09c-210.61,198.06-360,251.47-548.11,270.56l-12.5,200,197.5,67.5c172.5-5,338.13-254.72,440.44-468.95l-77.33-69.11" transform="translate(-189.56 -239.5)"/><path class="cls-9" d="M1528.16,705.67c-34.24,40.51-85.88,79.26-146.79,131.6l83.11-33.87c-10.19,16.88-25,40.52-33.35,50.65,19.15-8.84,50-28.29,60.18-38.6,0,14.39-17.34,38.46-24.9,51.61,44.33-37.94,84.66-84.26,97.68-124.94l-35.93-36.45" transform="translate(-189.56 -239.5)"/><path class="cls-10" d="M1537.87,707.72c-20.26,26.85-50.57,52.73-86.4,87.59l48.5-23c-6.08,11.15-14.92,26.76-19.85,33.47,11.19-6,29.25-19,35.27-25.87-.15,9.41-10.44,25.34-15,34,26.07-25.27,49.91-56,57.88-82.73l-20.44-23.47" transform="translate(-189.56 -239.5)"/><path class="cls-11" d="M1223.38,845.31c.27,6.27,0,16.84-6.26,20.46-10.44,6-18.65-8.64-22.49-16-4.57-8.81-3.4-19.75,6.94-23.67C1215.23,820.9,1222.88,833.63,1223.38,845.31Z" transform="translate(-189.56 -239.5)"/><path class="cls-11" d="M1718.5,1035.42c.27,6.26,0,16.83-6.26,20.46-10.44,6-18.65-8.64-22.49-16-4.57-8.81-3.4-19.74,6.94-23.67C1710.35,1011,1718,1023.74,1718.5,1035.42Z" transform="translate(-189.56 -239.5)"/><circle class="cls-11" cx="978.33" cy="534.99" r="8.75"/><circle class="cls-11" cx="1612.89" cy="932.4" r="13.32" transform="translate(-435.99 575.78) rotate(-26.43)"/></g><path class="cls-2" d="M1691.2,1140.64H1048.64a59.18,59.18,0,0,1-59.11-59.1V689.33H1750.3v392.21A59.17,59.17,0,0,1,1691.2,1140.64ZM992,691.83v389.71a56.67,56.67,0,0,0,56.61,56.6H1691.2a56.66,56.66,0,0,0,56.6-56.6V691.83Z" transform="translate(-189.56 -239.5)"/><path class="cls-6" d="M1691.2,539.11H1048.63A57.85,57.85,0,0,0,990.78,597v93.62h758.27V597A57.84,57.84,0,0,0,1691.2,539.11Z" transform="translate(-189.56 -239.5)"/><path class="cls-2" d="M1750.3,691.83H989.53V597a59.17,59.17,0,0,1,59.11-59.1H1691.2a59.16,59.16,0,0,1,59.1,59.1ZM992,689.33H1747.8V597a56.66,56.66,0,0,0-56.6-56.6H1048.64A56.67,56.67,0,0,0,992,597Z" transform="translate(-189.56 -239.5)"/><circle class="cls-4" cx="1067.17" cy="614.85" r="31.72" transform="translate(62.79 1298.9) rotate(-78.53)"/><circle class="cls-6" cx="1160.59" cy="614.85" r="31.72" transform="translate(-284.39 761.25) rotate(-45)"/><path class="cls-2" d="M1160.59,647.81a33,33,0,1,1,33-33A33,33,0,0,1,1160.59,647.81Zm0-63.43a30.47,30.47,0,1,0,30.46,30.47A30.51,30.51,0,0,0,1160.59,584.38Z" transform="translate(-189.56 -239.5)"/><rect class="cls-6" x="1055.91" y="345.08" width="186.83" height="60.55" rx="30.27"/><path class="cls-2" d="M1402,646.37H1275.74a31.53,31.53,0,0,1,0-63H1402a31.53,31.53,0,0,1,0,63Zm-126.29-60.55a29,29,0,0,0,0,58H1402a29,29,0,0,0,0-58Z" transform="translate(-189.56 -239.5)"/><path class="cls-12" d="M1659.75,470.11c-50.64,44.33-138,13.78-165.12,49.17l77.55,61.41Z" transform="translate(-189.56 -239.5)"/><path class="cls-4" d="M1494.63,519.28h0a30,30,0,0,0,5.48,30.26l55,63,17.12-31.8Z" transform="translate(-189.56 -239.5)"/><path class="cls-12" d="M1774.53,561c-31.54,59.45,18.21,137.46-10,172L1687,671.58Z" transform="translate(-189.56 -239.5)"/><path class="cls-4" d="M1764.51,733h0a30,30,0,0,1-30.71,1.6l-73.86-39.06,27-23.95Z" transform="translate(-189.56 -239.5)"/><polygon class="cls-13" points="1624.37 154.42 1555.32 179.77 1615.52 227.44 1624.37 154.42"/><path class="cls-4" d="M1805.08,466.93c-9.65,109.26-90.37,211.2-188.42,267.83l-89.34-70.68c37.49-118,107.31-202.36,217.56-244.82Z" transform="translate(-189.56 -239.5)"/><polygon class="cls-12" points="1337.76 424.58 1299 451.42 1409.85 539.2 1427.1 495.26 1337.76 424.58"/><circle class="cls-6" cx="1718.96" cy="513.84" r="41.47" transform="translate(-238.2 -32.96) rotate(-6.78)"/><path class="cls-2" d="M1722.09,543.23l-.26-2.49a27.25,27.25,0,0,0,7-1.68l.9,2.33A30,30,0,0,1,1722.09,543.23Zm-7.8-.2a29,29,0,0,1-7.48-2.24l1-2.28a26.22,26.22,0,0,0,6.84,2Zm22.23-5.41-1.48-2a27.12,27.12,0,0,0,5.13-5l2,1.55A29.14,29.14,0,0,1,1736.52,537.62Zm-36.34-1a29,29,0,0,1-5.32-5.7l2-1.45a26.82,26.82,0,0,0,4.88,5.22Zm45-9.17-2.21-1.16a27.15,27.15,0,0,0,2.43-6.72l2.44.54A29.6,29.6,0,0,1,1745.18,527.49Zm-54-3.44a29.63,29.63,0,0,1-1.7-7.62l2.49-.22a27.18,27.18,0,0,0,1.55,7ZM1746,512.49a27.43,27.43,0,0,0-1.29-7l2.37-.77a29.69,29.69,0,0,1,1.42,7.67Zm-53.66-3.42-2.46-.44a29.37,29.37,0,0,1,2.38-7.44l2.26,1.07A27.07,27.07,0,0,0,1692.32,509.07ZM1741.6,499a27,27,0,0,0-4.68-5.4l1.66-1.87a29.62,29.62,0,0,1,5.11,5.9Zm-43.21-2.75-1.9-1.62a29.7,29.7,0,0,1,5.81-5.22l1.41,2.07A27.09,27.09,0,0,0,1698.39,496.26Zm32.61-6.65a27,27,0,0,0-6.76-2.31l.48-2.45a29.34,29.34,0,0,1,7.39,2.52Zm-20.91-1.33-.81-2.36a29.24,29.24,0,0,1,7.64-1.56l.18,2.49A27.47,27.47,0,0,0,1710.09,488.28Z" transform="translate(-189.56 -239.5)"/><rect class="cls-13" x="1548.71" y="649.4" width="15.97" height="138.72" rx="6.73" transform="translate(592.94 -1050.62) rotate(38.37)"/><path class="cls-2" d="M1652.37,1630h-15v-2.5h15Zm-30,0h-15v-2.5h15Zm-30,0h-15v-2.5h15Zm-30,0h-15v-2.5h15Zm-30,0h-15v-2.5h15Zm-30,0h-15v-2.5h15Zm-30,0h-15v-2.5h15Zm-30,0h-15v-2.5h15Zm-30,0h-15v-2.5h15Zm-30,0h-15v-2.5h15Zm-30,0a48,48,0,0,1-15.11-2.58l.81-2.36a45.61,45.61,0,0,0,14.32,2.44Zm301.81,0-.09-2.5a45.16,45.16,0,0,0,14.25-2.85l.88,2.34A48.08,48.08,0,0,1,1654.17,1630Zm-330.44-9.79a48,48,0,0,1-10.55-11.12l2.06-1.41a45.75,45.75,0,0,0,10,10.55Zm358.78-.84-1.57-1.94a45.5,45.5,0,0,0,9.7-10.83l2.11,1.36A48,48,0,0,1,1682.51,1619.33Zm-375.84-24.16a48,48,0,0,1-1.82-13.13v-2h2.5v2a45.61,45.61,0,0,0,1.72,12.44Zm392.18-1.32-2.42-.61a45.76,45.76,0,0,0,1.39-11.2v-3.37h2.5V1582A47.77,47.77,0,0,1,1698.85,1593.85ZM1307.35,1565h-2.5v-15h2.5Zm393-1.32h-2.5v-15h2.5Zm-393-28.68h-2.5v-15h2.5Zm393-1.32h-2.5v-15h2.5Zm-393-28.68h-2.5v-15h2.5Zm393-1.32h-2.5v-15h2.5Zm-393-28.68h-2.5v-15h2.5Zm393-1.32h-2.5v-15h2.5Zm-393-28.68h-2.5v-15h2.5Zm393-1.32h-2.5v-15h2.5Zm-393-28.68h-2.5v-10a49,49,0,0,1,.27-5.13l2.49.27a46.54,46.54,0,0,0-.26,4.86Zm393-1.32h-2.5V1405a46.83,46.83,0,0,0-.41-6.15l2.48-.33a49.9,49.9,0,0,1,.43,6.48Zm-388.87-27.55-2.28-1a47.92,47.92,0,0,1,8.53-12.75l1.83,1.71A45,45,0,0,0,1311.45,1386.12Zm381.72-1.16a45.41,45.41,0,0,0-8.42-11.85l1.79-1.75a48.07,48.07,0,0,1,8.88,12.49ZM1331,1365.11l-1.2-2.19a47.53,47.53,0,0,1,14.46-5.11l.44,2.46A45.25,45.25,0,0,0,1331,1365.11Zm342-.6a45.24,45.24,0,0,0-13.83-4.45l.37-2.47a47.79,47.79,0,0,1,14.6,4.69Zm-28.62-5h-15v-2.5h15Zm-30,0h-15v-2.5h15Zm-30,0h-15v-2.5h15Zm-30,0h-15v-2.5h15Zm-30,0h-15v-2.5h15Zm-30,0h-15v-2.5h15Zm-30,0h-15v-2.5h15Zm-30,0h-15v-2.5h15Zm-30,0h-15v-2.5h15Zm-30,0h-15v-2.5h15Z" transform="translate(-189.56 -239.5)"/><rect class="cls-14" x="1079.39" y="1069.27" width="392.97" height="277.89" rx="36.91"/><rect class="cls-6" x="1147.72" y="1231.59" width="42.55" height="86.41"/><rect class="cls-6" x="1218.98" y="1234.37" width="42.55" height="83.64"/><rect class="cls-6" x="1290.23" y="1190.68" width="42.55" height="127.33"/><rect class="cls-6" x="1361.49" y="1153.32" width="42.55" height="164.68"/><rect class="cls-6" x="1161.72" y="1108.41" width="228.31" height="9.98"/><path class="cls-12" d="M656.13,1037.49a118.48,118.48,0,0,0-43.57-62.55l-8.44-6.22L611.29,1117l55.4-42.85Z" transform="translate(-189.56 -239.5)"/><path class="cls-15" d="M834.16,1216.67l-12.31-24.1a24.42,24.42,0,0,0-15.26-12.45l-36.21-10-93.16-59.48-10.53-36.51L611.29,1117l.5,10.41a54.78,54.78,0,0,0,33,47.66l90.46,39,43,1c13.86,4.77,18.64,16.72,27.23,12.42,3.21-1.6-9.31-22.22-9.31-22.22L817,1228.13Z" transform="translate(-189.56 -239.5)"/><rect class="cls-16" x="661.72" y="1116.34" width="18.81" height="2.87" transform="translate(-804.87 666.37) rotate(-49.66)"/><path class="cls-17" d="M672.13,1276.71l67.78-6c44.12-3.89,82.5,31.73,84.65,78.58l15.31,333.81L746.38,1686Z" transform="translate(-189.56 -239.5)"/><polygon class="cls-18" points="564.34 1443.22 567.21 1535.42 705.75 1535.42 637.43 1478.57 633.13 1434.14 564.34 1443.22"/><rect class="cls-6" x="794.03" y="1726.43" width="36.79" height="5.73" transform="translate(-1076.11 615.73) rotate(-37.61)"/><polygon class="cls-12" points="532.81 1443.22 535.67 1535.42 674.22 1535.42 605.9 1478.57 601.6 1434.14 532.81 1443.22"/><rect class="cls-6" x="762.5" y="1726.43" width="36.79" height="5.73" transform="translate(-1082.66 596.49) rotate(-37.61)"/><path class="cls-19" d="M825.56,1691.79H710.9l-81.72-251.45-11.44-35.2-163.39-.72c-10.09-.14-19.75-4.81-28-11.72C409,1378.05,401,1355,404.18,1332.53l14.34-102.25,242.73,31.56a109,109,0,0,1,92.68,85.89Z" transform="translate(-189.56 -239.5)"/><polygon class="cls-13" points="461.86 1165.64 439.62 1200.85 428.18 1165.64 461.86 1165.64"/><path class="cls-12" d="M621.41,1211.77c-1.18,4.73-2.41,9.46-3.67,14.22l-8.6,35.11-113.23-4.7L414.39,1253a35,35,0,0,1-32.85-42.14l38-182.91A69.44,69.44,0,0,1,481,969.69l93-9.57,30.09,8.6c29.38,15.76,29.41,44.34,30.82,63.06C641.1,1113.7,633.5,1163.32,621.41,1211.77Z" transform="translate(-189.56 -239.5)"/><path class="cls-20" d="M544.64,1205.92c-1.17,4.73,74.36,15.31,73.1,20.07l-8.6,35.11-113.23-4.7c-39.55-29.84-54.37-94.77-68.79-176.12Z" transform="translate(-189.56 -239.5)"/><path class="cls-13" d="M522.14,1013a68.09,68.09,0,0,0,16.92,13.41,56,56,0,0,0,20.22,6.83c7,.91,14.41.32,20.57-3,6.3-3.13,10.3-9.74,11-16.89l1.12.07a23.06,23.06,0,0,1-2.85,10.91,21.69,21.69,0,0,1-8.09,8.1c-6.73,3.89-14.73,4.6-22.16,3.65a55.07,55.07,0,0,1-21.07-7.54,59.69,59.69,0,0,1-16.57-14.79Z" transform="translate(-189.56 -239.5)"/><path class="cls-13" d="M637.44,1124.78l-2.14-.15c2.06-28.84,0-64.29-6.2-105.35l2.12-.32C637.42,1060.18,639.51,1095.78,637.44,1124.78Z" transform="translate(-189.56 -239.5)"/><rect class="cls-13" x="533.76" y="986.97" width="106.54" height="21.02"/><polygon class="cls-14" points="824.71 1007.99 610.68 1007.99 709.1 819.75 923.13 819.75 824.71 1007.99"/><path class="cls-13" d="M545.72,809.63c-25.08-24.73-72.38-14.34-71.66,27.23-51.6,13.61-54.47,70.23-33.69,99.25l17.92,1.43,3.94-21.14,10.39,21.5,50.17,3.23Z" transform="translate(-189.56 -239.5)"/><path class="cls-15" d="M587.64,902.07v79c0,.72,0,1.41-.09,2.1a26.51,26.51,0,0,1-33,23.59,53.32,53.32,0,0,1-40-52.06l.4-52.6Z" transform="translate(-189.56 -239.5)"/><path class="cls-13" d="M587.64,936.21V981c0,.72,0,1.41-.09,2.1C566.43,979.67,542,955.22,536,928.59Z" transform="translate(-189.56 -239.5)"/><path class="cls-15" d="M630.38,907.92a142,142,0,0,1-4.5,18.8c-6.31,20-17.63,36.66-37.9,33.77-47.64-6.82-74.15-55.9-74.15-55.9l32.59-37.26,21.87-29.41,65.56,28.32A247,247,0,0,1,630.38,907.92Z" transform="translate(-189.56 -239.5)"/><path class="cls-13" d="M527.92,892c20.91-.67,37.08-11.32,44-41.57,0,0,48.73,42,72.61,19.59,20-18.8-13.93-62.06-70.1-67.22A79.6,79.6,0,0,0,517.5,820.2c-27.23,21.82-29.83,72.55-4.39,90.11Z" transform="translate(-189.56 -239.5)"/><path class="cls-12" d="M503.44,839c-1.37-4.94-.35-10.42,1.86-15.13a33.53,33.53,0,0,1,9.81-12.07,34.46,34.46,0,0,1,14-6.57,25.37,25.37,0,0,1,15.14,1.16,83.89,83.89,0,0,0-13,5.24,69.9,69.9,0,0,0-11,7,63.8,63.8,0,0,0-9.38,8.86A52.45,52.45,0,0,0,503.44,839Z" transform="translate(-189.56 -239.5)"/><ellipse class="cls-15" cx="521.65" cy="895.39" rx="16.3" ry="19.7" transform="translate(-484.94 18.48) rotate(-21.82)"/><path class="cls-13" d="M521.65,906.21a23.46,23.46,0,0,0-.63-9.84c-1-3-2.93-5.7-5.15-8.44l.7-.87a14.32,14.32,0,0,1,6.16,19.47Z" transform="translate(-189.56 -239.5)"/><path class="cls-13" d="M600,895.64a4.87,4.87,0,1,1-4.84-5.36A5.12,5.12,0,0,1,600,895.64Z" transform="translate(-189.56 -239.5)"/><path class="cls-13" d="M625.37,899.86a4.33,4.33,0,1,1-3.69-5.26A4.56,4.56,0,0,1,625.37,899.86Z" transform="translate(-189.56 -239.5)"/><path class="cls-13" d="M599.71,882.19c.19,2.5-3.81,2.74-9.72,2.92s-10,2-10,.41,4.32-5.65,10.14-6.63C596.11,877.87,599.47,879.21,599.71,882.19Z" transform="translate(-189.56 -239.5)"/><path class="cls-13" d="M618.56,884.6c-.44,2.47,2.51,3.1,6.87,3.87s7.18,3,7.4,1.41-2.55-6-6.76-7.6S619.07,881.66,618.56,884.6Z" transform="translate(-189.56 -239.5)"/><path class="cls-13" d="M611.54,904.31a41.83,41.83,0,0,0,3.64,3.77l1.93,1.8a10.82,10.82,0,0,1,2,2.28,4,4,0,0,1,.61,1.91,3.75,3.75,0,0,1-.47,2,7.17,7.17,0,0,1-2.31,2.34,14.6,14.6,0,0,1-5.37,1.94l-.41-1a41.15,41.15,0,0,0,4.27-2.92,5.47,5.47,0,0,0,1.33-1.61c.23-.47.16-.63-.1-1.19-.64-1-2.26-2.44-3.33-3.89a16.23,16.23,0,0,1-2.81-4.88Z" transform="translate(-189.56 -239.5)"/><path class="cls-13" d="M587.28,922c2.93,3.35,6,6.44,9.64,8.4a20.18,20.18,0,0,0,12.19,2.11l.3,1.08a15,15,0,0,1-6.93,1.31,15.78,15.78,0,0,1-6.91-2,22.23,22.23,0,0,1-9.24-10.3Z" transform="translate(-189.56 -239.5)"/><circle class="cls-21" cx="380.53" cy="667.59" r="11.83"/><path class="cls-21" d="M630.38,907.92a142,142,0,0,1-4.5,18.8,11.82,11.82,0,0,1,4.5-18.8Z" transform="translate(-189.56 -239.5)"/><polygon class="cls-12" points="305.88 808.29 237.56 840.77 258.99 891.57 330.62 858.53 305.88 808.29"/><path class="cls-22" d="M748.5,1223.94c-1.89-1-3.08-1.59-3.08-1.59l.68-1.35s1.27.61,3.1,1.59Z" transform="translate(-189.56 -239.5)"/><path class="cls-15" d="M776.83,1231c-2.21,4.36-19.12-3.35-27-7.22,6.1,3.38,16.62,10,11.95,13.67-3.75,2.9-12.07-3.27-39.3-14.56,4.13,1.95,28.47,13.53,22.33,17.91-6.68,4.76-35.34-5.73-35.34-5.73l-24.86,13.36H656l-103.14.66a74.9,74.9,0,0,1-19.12-2.41,85.63,85.63,0,0,1-33.53-17.37,84,84,0,0,1-15.91-17.86,95.14,95.14,0,0,1-8.52-15.94l-27.2-64.43L520.16,1098l37.38,75.88,123.26,26.77,34.4-8.6c7.4-1.86,17.86,1.27,24.37,5.25C755.45,1207,778.89,1226.84,776.83,1231Z" transform="translate(-189.56 -239.5)"/><path class="cls-21" d="M535.56,1236a31.07,31.07,0,0,1-1.87,10.66,85.63,85.63,0,0,1-33.53-17.37,84,84,0,0,1-15.91-17.86A31.54,31.54,0,0,1,535.56,1236Z" transform="translate(-189.56 -239.5)"/><path class="cls-16" d="M680.63,1200.13a235.2,235.2,0,0,1,26-7.14,92.88,92.88,0,0,1,13.45-1.91,40.12,40.12,0,0,1,6.92.18c1.15.23,2.3.53,3.45.8s2.16.83,3.24,1.24c8.39,3.8,15.69,9.24,22.76,14.83s13.73,11.68,20.21,18l.3.29.06.37a5.41,5.41,0,0,1-.68,3.88,4.51,4.51,0,0,1-1.56,1.37,4.38,4.38,0,0,1-1.79.63,14.9,14.9,0,0,1-6.43-.63,63.47,63.47,0,0,1-11.13-4.68c-3.51-1.87-7-3.82-10.32-5.93s-6.65-4.28-10-6.42l1.52-2.43a180.27,180.27,0,0,1,17,11.27,46.38,46.38,0,0,1,7.69,7.07,10.11,10.11,0,0,1,1.49,2.52,4.62,4.62,0,0,1,.34,1.75,3.35,3.35,0,0,1-.73,2,5.29,5.29,0,0,1-2.91,1.62,17.12,17.12,0,0,1-2.76.39l-.28,0-.31-.13-31.11-13,.93-2.19a107.82,107.82,0,0,1,14.22,7.68c2.22,1.58,4.55,3,6.19,5.76a3.35,3.35,0,0,1,.25,2.74,3.67,3.67,0,0,1-1.84,1.9,10.41,10.41,0,0,1-4.29,1c-5.57.13-10.81-1.18-16-2.46s-10.28-3-15.31-4.81l.38-1.06c5,1.69,10.14,3.17,15.29,4.4s10.43,2.29,15.54,2c2.44-.1,5.35-1.17,4.16-2.78-1.12-1.88-3.43-3.48-5.54-4.89a105.61,105.61,0,0,0-14-7.3l.94-2.19,31.23,12.76-.59-.1a14,14,0,0,0,2.24-.32,3,3,0,0,0,1.47-.7c.43-.18-.15-1.72-1.13-2.87A43.42,43.42,0,0,0,752,1226a175.26,175.26,0,0,0-16.77-11l1.51-2.42c3.3,2.11,6.5,4.39,9.85,6.39s6.7,4,10.12,5.87a60.94,60.94,0,0,0,10.58,4.51,12.46,12.46,0,0,0,5.18.6l.55-.09a3.45,3.45,0,0,0,.43-.22c.33-.09.43-.36.65-.52a2.88,2.88,0,0,0,.31-1.81l.36.66c-6.34-6.26-13-12.26-19.9-17.93s-14.1-11.06-22-14.78l-3-1.21c-1-.25-2.06-.54-3.1-.76a38.17,38.17,0,0,0-6.52-.25,94.08,94.08,0,0,0-13.22,1.6,231.25,231.25,0,0,0-26,6.52Z" transform="translate(-189.56 -239.5)"/><polygon class="cls-13" points="259.42 892.55 258.52 890.6 329.2 857.99 299.76 789.09 301.74 788.25 332 859.07 259.42 892.55"/><rect class="cls-13" x="265.78" y="1194.31" width="3.75" height="322.96"/><rect class="cls-23" x="155.15" y="1164.21" width="225.02" height="44.43" rx="22.22"/><path class="cls-23" d="M225.1,1501.22h85.12a33.4,33.4,0,0,1,33.4,33.4v3.67a0,0,0,0,1,0,0H191.69a0,0,0,0,1,0,0v-3.67A33.4,33.4,0,0,1,225.1,1501.22Z"/><rect class="cls-13" x="832.28" y="1221.94" width="3.75" height="599.9" transform="translate(-872.94 440.34) rotate(-32.25)"/><rect class="cls-13" x="534.21" y="1520.02" width="599.9" height="3.75" transform="translate(-1087.61 1175.42) rotate(-57.74)"/><rect class="cls-24" x="364.16" y="1007.99" width="560.88" height="42.3"/><path class="cls-2" d="M600.74,573.11A117.22,117.22,0,1,1,718,455.89,117.35,117.35,0,0,1,600.74,573.11Zm0-231.93A114.72,114.72,0,1,0,715.45,455.89,114.84,114.84,0,0,0,600.74,341.18Z" transform="translate(-189.56 -239.5)"/><circle class="cls-14" cx="490.44" cy="170.47" r="127.53"/><polygon class="cls-13" points="490.49 172.89 419.78 117.46 422.1 114.51 490.4 168.05 528.48 135.8 530.9 138.66 490.49 172.89"/><path class="cls-6" d="M349.05,685H284.29a18.87,18.87,0,0,0-18.87,18.87v64.76a18.87,18.87,0,0,0,18.87,18.87H330.5L350.42,815V787.43a18.85,18.85,0,0,0,17.5-18.8V703.87A18.87,18.87,0,0,0,349.05,685Z" transform="translate(-189.56 -239.5)"/><path class="cls-4" d="M351.67,818.86l-21.81-30.11H284.29a20.14,20.14,0,0,1-20.12-20.12V703.87a20.14,20.14,0,0,1,20.12-20.12h64.76a20.15,20.15,0,0,1,20.12,20.12v64.76a20.19,20.19,0,0,1-17.5,19.93ZM284.29,686.25a17.63,17.63,0,0,0-17.62,17.62v64.76a17.63,17.63,0,0,0,17.62,17.62h46.85l18,24.89V786.27l1.16-.09a17.67,17.67,0,0,0,16.34-17.55V703.87a17.64,17.64,0,0,0-17.62-17.62Z" transform="translate(-189.56 -239.5)"/><polygon class="cls-4" points="125.78 530.08 99.86 492.64 106.02 488.37 125.1 515.92 153.83 464.51 160.38 468.17 125.78 530.08"/><rect class="cls-13" x="50.44" y="1534.54" width="1536.44" height="3.75"/></g></svg>