<?xml version="1.0" encoding="utf-8"?>
<!-- Generator: Adobe Illustrator 24.3.0, SVG Export Plug-In . SVG Version: 6.00 Build 0)  -->
<svg version="1.1" id="Layer_1" xmlns="http://www.w3.org/2000/svg" xmlns:xlink="http://www.w3.org/1999/xlink" x="0px" y="0px"
	 viewBox="0 0 595.28 841.89" style="enable-background:new 0 0 595.28 841.89;" xml:space="preserve">
<style type="text/css">
	.st0{fill:url(#SVGID_1_);}
	.st1{fill:url(#SVGID_2_);}
	.st2{fill:url(#SVGID_3_);}
	.st3{fill:url(#SVGID_4_);}
	.st4{fill:url(#SVGID_5_);}
	.st5{fill:url(#SVGID_6_);}
	.st6{fill:url(#SVGID_7_);}
	.st7{fill:url(#SVGID_8_);}
	.st8{fill:url(#SVGID_9_);}
	.st9{fill:url(#SVGID_10_);}
	.st10{fill:#36A9E1;}
	.st11{fill:none;}
	.st12{fill:url(#SVGID_11_);}
	.st13{fill:url(#SVGID_12_);}
	.st14{fill:url(#SVGID_13_);}
	.st15{fill:url(#SVGID_14_);}
</style>
<g>
	<g>
		<linearGradient id="SVGID_1_" gradientUnits="userSpaceOnUse" x1="153.4194" y1="348.7516" x2="153.4194" y2="348.4816">
			<stop  offset="0.1954" style="stop-color:#66C7EB"/>
			<stop  offset="0.8071" style="stop-color:#1D71B8"/>
		</linearGradient>
		<path class="st0" d="M153.32,348.67c0.12-0.06,0.25-0.12,0.37-0.19c-0.09,0.05-0.17,0.1-0.27,0.15c-0.09,0.04-0.18,0.09-0.27,0.12
			C153.21,348.73,153.27,348.7,153.32,348.67z"/>
		<linearGradient id="SVGID_2_" gradientUnits="userSpaceOnUse" x1="206.1619" y1="349.1267" x2="206.1619" y2="125.9897">
			<stop  offset="0.1954" style="stop-color:#66C7EB"/>
			<stop  offset="0.8071" style="stop-color:#1D71B8"/>
		</linearGradient>
		<path class="st1" d="M277.32,136.18l-31.64,54.8l-8.42,14.59l-2.46,4.27c-0.01,0.01-0.02,0.02-0.02,0.03l-3.94,6.82
			c-2.3,0.86-4.6,1.77-6.9,2.76L150.18,347.2c-0.45,0.78-1.01,1.43-1.66,1.93c-0.09-0.02-0.17-0.04-0.25-0.07
			c-1.8-0.55-3.39-1.85-4.21-3.87c-4.79-11.76-8.05-23.7-9.88-35.64c-0.03-0.19-0.06-0.39-0.09-0.58
			c3.18-4.79,8.05-11.12,14.35-19.94c13.59-19.04,15.22-21.28,18.48-25.23c5.58-6.75,14.02-16.86,27.04-28.13
			c0,0,0.58-0.5,1.66-1.39c0.33-0.28,0.72-0.6,1.15-0.95c5.35-4.37,17.76-14.05,31.9-22.07l1.12-1.95l9.87-17.1l31.64-54.8
			c2.81-4.87-1.18-10.89-6.75-10.12c-2.42,0.33-4.81,0.72-7.19,1.16c4.32-0.97,8.73-1.77,13.21-2.39
			C276.14,125.29,280.13,131.31,277.32,136.18z"/>
		<linearGradient id="SVGID_3_" gradientUnits="userSpaceOnUse" x1="208.0283" y1="310.3638" x2="168.6448" y2="249.9571">
			<stop  offset="0.2792" style="stop-color:#1D71B8"/>
			<stop  offset="0.9721" style="stop-color:#66C7EB"/>
		</linearGradient>
		<path class="st2" d="M228.67,211.26l-4.73,8.19L150.18,347.2c-0.45,0.78-1.01,1.43-1.66,1.93c-0.1,0.09-0.2,0.17-0.31,0.24
			c0.02-0.1,0.04-0.21,0.06-0.31c1.34-7.6,3.01-15.27,5.02-22.98c9.32-35.86,24.59-67.48,43.15-92.31c0.11-0.15,0.22-0.3,0.33-0.44
			C202.12,228.96,214.53,219.28,228.67,211.26z"/>
		<linearGradient id="SVGID_4_" gradientUnits="userSpaceOnUse" x1="311.0681" y1="387.1726" x2="208.798" y2="230.3098">
			<stop  offset="0.2792" style="stop-color:#1D71B8"/>
			<stop  offset="0.9721" style="stop-color:#66C7EB"/>
		</linearGradient>
		<path class="st3" d="M376.64,285.52c-1.23-4.71-3.81-9.09-7.63-12.53l-4.84-4.36c-4.47-4.04-9.89-6.18-15.36-6.56
			c-7.63-0.54-15.35,2.33-20.75,8.21c-1.25,1.36-2.38,2.89-3.35,4.57l-92.03,159.4l-0.61,1.06c-9.89,17.13-34.61,17.13-44.5,0.01
			l-2.63-4.56l-12.71-22.01c-2.11-3.64-3.25-7.68-3.42-11.76c-0.2-4.8,0.94-9.64,3.42-13.94l101.32-175.52l8.06-13.95l9.95-17.23
			c0.23,0.01,0.47,0.02,0.7,0.03c4.85,0.22,9.67,0.93,14.42,2.17c28.91,7.53,50.32,32.91,61.8,68.15c0,0.01,0.01,0.02,0.01,0.03
			c2.23,6.83,4.08,14.03,5.54,21.55c0.98,5.02,1.78,10.19,2.41,15.47C376.51,284.34,376.57,284.93,376.64,285.52z"/>
		<linearGradient id="SVGID_5_" gradientUnits="userSpaceOnUse" x1="350.792" y1="471.3747" x2="277.6102" y2="359.1279">
			<stop  offset="0.2792" style="stop-color:#1D71B8"/>
			<stop  offset="0.9721" style="stop-color:#66C7EB"/>
		</linearGradient>
		<path class="st4" d="M368.71,382.14c-20.22,77.71-68.35,135.57-117.3,147.49c-1.41,0.36-2.83,0.66-4.25,0.93
			c0.17-4.09,1.31-8.13,3.42-11.8l7.33-12.69l116.14-201.16c0.02-0.04,0.04-0.07,0.06-0.11c1.93-3.38,3.02-7.05,3.3-10.74
			c0.14,1.88,0.25,3.78,0.33,5.69C378.98,325.52,376.14,353.58,368.71,382.14z"/>
		<linearGradient id="SVGID_6_" gradientUnits="userSpaceOnUse" x1="172.7871" y1="358.3873" x2="452.4003" y2="358.3873">
			<stop  offset="0.0888" style="stop-color:#66C7EB"/>
			<stop  offset="0.9086" style="stop-color:#1D71B8"/>
		</linearGradient>
		<path class="st5" d="M452.32,286.15c-0.13,4.11-0.43,8.24-0.9,12.38c-0.05,0.53-0.12,1.06-0.18,1.59
			c-2.51,20.61-9.19,41.33-20.62,61.13L303.83,580.86l-1.3,2.25c-0.7,1.22-1.55,2.26-2.51,3.12c-1.16,1.07-2.47,1.87-3.87,2.42
			c-0.83,0.33-1.69,0.57-2.57,0.71c-5.02,0.87-10.49-1.22-13.4-6.25l-9.22-15.98l-8.49-14.7l-7.89-13.66
			c-1.65-2.87-2.71-5.97-3.17-9.14c-0.24-1.58-0.32-3.17-0.25-4.76c0.17-4.09,1.31-8.13,3.42-11.8l7.33-12.69l115.83-200.63
			l0.31-0.53c0.02-0.04,0.04-0.07,0.06-0.11c0.61-1.08,1.14-2.18,1.58-3.31c0.89-2.23,1.44-4.54,1.66-6.87
			c0.03-0.19,0.05-0.37,0.06-0.56c0.23-2.88-0.03-5.76-0.77-8.54c-0.53-2.04-1.32-4.03-2.36-5.9c-1.13-2.04-2.55-3.95-4.25-5.65
			c-0.33-0.34-0.67-0.66-1.02-0.98l-4.84-4.36c-0.08-0.07-0.17-0.15-0.25-0.21v-0.01c-10.37-9.14-25.7-8.23-35.01,0.99
			c-0.01,0-0.01,0.01-0.02,0.01c-1.58,1.57-3,3.39-4.18,5.44l-0.65,1.12l-91.99,159.34c-0.99,1.72-2.13,3.26-3.39,4.63
			c-11.3,12.33-32.21,10.79-41.11-4.62l-3.06-5.3l-12.28-21.27c-2.11-3.64-3.25-7.68-3.42-11.76c-0.2-4.8,0.94-9.64,3.42-13.94
			l98.06-169.85l8.07-13.98l9.9-17.15l3.3-5.72l0.13-0.22l11.94-20.68l4.93-8.53l0.67-1.16c6.13-10.61,18.92-15.43,30.52-11.48
			C410.88,151.45,454.54,216.92,452.32,286.15z"/>
		<linearGradient id="SVGID_7_" gradientUnits="userSpaceOnUse" x1="126.5831" y1="224.5032" x2="272.2186" y2="224.5032">
			<stop  offset="0.0368" style="stop-color:#1D71B8"/>
			<stop  offset="0.1679" style="stop-color:#2E89C8"/>
			<stop  offset="0.3162" style="stop-color:#409FD6"/>
			<stop  offset="0.4691" style="stop-color:#51B0DF"/>
			<stop  offset="0.6262" style="stop-color:#5CBDE6"/>
			<stop  offset="0.7902" style="stop-color:#64C4EA"/>
			<stop  offset="0.9721" style="stop-color:#66C7EB"/>
		</linearGradient>
		<path class="st6" d="M271.3,137.41l-31.64,54.8l-9.87,17.1l-1.12,1.95c-14.14,8.02-26.55,17.7-31.9,22.07
			c-0.43,0.35-0.82,0.67-1.15,0.95c-1.08,0.89-1.66,1.39-1.66,1.39c-13.02,11.27-21.46,21.38-27.04,28.13
			c-3.26,3.95-4.89,6.19-18.48,25.23c-6.3,8.82-11.17,15.15-14.35,19.94c-3,4.52-4.49,7.68-4.23,10.28c0.07,0.7,0.21,1.56,0.41,2.54
			c-0.13-0.57-0.27-1.14-0.39-1.71c-0.13-0.57-0.25-1.14-0.37-1.72c-1.42-6.9-2.35-13.8-2.82-20.68c-0.04-0.42-0.06-0.83-0.09-1.24
			c-0.08-1.33,0.24-2.64,0.91-3.79l85.21-147.59c0.67-1.15,1.65-2.09,2.83-2.68c12.9-6.43,26.9-11.19,41.81-13.93
			c2.38-0.44,4.77-0.83,7.19-1.16C270.12,126.52,274.11,132.54,271.3,137.41z"/>
		<linearGradient id="SVGID_8_" gradientUnits="userSpaceOnUse" x1="179.2456" y1="349.8364" x2="179.2456" y2="211.2567">
			<stop  offset="0" style="stop-color:#1D71B8"/>
			<stop  offset="0.9721" style="stop-color:#66C7EB"/>
		</linearGradient>
		<path class="st7" d="M228.67,211.26l-4.73,8.19L150.18,347.2c-0.45,0.78-1.01,1.43-1.66,1.93c-0.1,0.09-0.2,0.17-0.31,0.24
			c-0.24,0.17-0.5,0.33-0.76,0.46c-0.66,0.02-1.33,0.01-1.99-0.04c-3.3-0.25-6.25-1.36-7.11-3.48c-3.31-8.11-6.12-16.22-8.06-24.43
			c-0.01-0.03-0.01-0.05-0.02-0.07c0-0.01,0-0.01,0-0.02c-0.2-0.98-0.34-1.84-0.41-2.54c-0.26-2.6,1.23-5.76,4.23-10.28
			c3.18-4.79,8.05-11.12,14.35-19.94c13.59-19.04,15.22-21.28,18.48-25.23c5.58-6.75,14.02-16.86,27.04-28.13
			c0,0,0.58-0.5,1.66-1.39c0.33-0.28,0.72-0.6,1.15-0.95C202.12,228.96,214.53,219.28,228.67,211.26z"/>
		<linearGradient id="SVGID_9_" gradientUnits="userSpaceOnUse" x1="168.7871" y1="364.0782" x2="448.4003" y2="364.0782">
			<stop  offset="0" style="stop-color:#1D71B8"/>
			<stop  offset="0.9721" style="stop-color:#66C7EB"/>
		</linearGradient>
		<path class="st8" d="M448.32,291.84c-0.13,4.11-0.43,8.24-0.9,12.38c-0.05,0.53-0.12,1.06-0.18,1.59
			c-0.01,0.08-0.02,0.17-0.03,0.25c-2.53,20.53-9.21,41.16-20.59,60.88l-22.47,38.92L300.02,586.23l-0.19,0.32l-1.3,2.25
			c-1.55,2.69-3.83,4.54-6.38,5.54c-0.83,0.33-1.69,0.57-2.57,0.71c-5.02,0.87-10.49-1.22-13.4-6.25l-10.24-17.74l-8.85-15.33
			l-6.51-11.27c-2.48-4.29-3.62-9.12-3.42-13.9c0.17-4.09,1.31-8.13,3.42-11.8l7.33-12.69l116.14-201.16
			c0.02-0.04,0.04-0.07,0.06-0.11c1.93-3.38,3.02-7.05,3.3-10.74c0.23-2.88-0.03-5.76-0.77-8.54c-1.23-4.71-3.81-9.09-7.63-12.53
			l-4.84-4.36c-4.47-4.04-9.89-6.18-15.36-6.56c-7.63-0.54-15.35,2.33-20.75,8.21c-1.25,1.36-2.38,2.89-3.35,4.57l-92.03,159.4
			l-0.61,1.06c-9.89,17.13-34.61,17.13-44.5,0.01l-2.63-4.56l-12.71-22.01c-2.11-3.64-3.25-7.68-3.42-11.76
			c-0.2-4.8,0.94-9.64,3.42-13.94l101.32-175.52l8.06-13.95l9.95-17.23l0.13-0.22l15.51-26.85l2.03-3.52
			c0.96-1.66,2.07-3.17,3.33-4.53c6.76-7.37,17.4-10.28,27.19-6.95c27.83,9.47,51.62,26.27,69.77,47.62
			C435.19,212.06,449.62,251.31,448.32,291.84z"/>
		<linearGradient id="SVGID_10_" gradientUnits="userSpaceOnUse" x1="359.6626" y1="266.147" x2="406.3339" y2="163.7807">
			<stop  offset="0.1954" style="stop-color:#66C7EB"/>
			<stop  offset="0.8071" style="stop-color:#1D71B8"/>
		</linearGradient>
		<path class="st9" d="M448.32,291.84c-0.13,4.11-0.43,8.24-0.9,12.38c-0.05,0.53-0.12,1.06-0.18,1.59
			c-0.01,0.08-0.02,0.17-0.03,0.25L307.2,149.28l2.03-3.52c0.96-1.66,2.07-3.17,3.33-4.53c6.76-7.37,17.4-10.28,27.19-6.95
			c27.83,9.47,51.62,26.27,69.77,47.62C435.19,212.06,449.62,251.31,448.32,291.84z"/>
	</g>
	<path class="st10" d="M230.84,216.69l-74.81,129.16c-0.52,0.91-1.03,1.75-1.8,2.29c-0.04,0.03-0.08,0.05-0.12,0.08h-0.01
		c-0.13,0.1-0.26,0.18-0.41,0.26c-0.12,0.07-0.25,0.13-0.37,0.19c-0.05,0.03-0.11,0.06-0.17,0.08c-0.26,0.12-0.55,0.23-0.86,0.33
		c-1.35,0.44-3.07,0.7-4.84,0.75c0.26-0.13,0.52-0.29,0.76-0.46c0.11-0.07,0.21-0.15,0.31-0.24c0.65-0.5,1.21-1.15,1.66-1.93
		l73.76-127.75C226.24,218.46,228.54,217.55,230.84,216.69z"/>
	<path class="st11" d="M153.32,348.67c0.12-0.06,0.25-0.12,0.37-0.19c-0.09,0.05-0.17,0.1-0.27,0.15
		C153.39,348.64,153.36,348.66,153.32,348.67z"/>
	<linearGradient id="SVGID_11_" gradientUnits="userSpaceOnUse" x1="129.8261" y1="284.6415" x2="223.9352" y2="284.6415">
		<stop  offset="0" style="stop-color:#1D71B8"/>
		<stop  offset="0.9721" style="stop-color:#66C7EB"/>
	</linearGradient>
	<path class="st12" d="M223.94,219.45L150.18,347.2c-0.45,0.78-1.01,1.43-1.66,1.93c-0.1,0.09-0.2,0.17-0.31,0.24
		c-0.24,0.17-0.5,0.33-0.76,0.46c-0.66,0.02-1.33,0.01-1.99-0.04c-3.39-0.21-6.56-1.26-7.42-3.37c-0.2-0.48-0.39-0.97-0.58-1.45
		c-0.01-0.03-0.03-0.07-0.04-0.1c-0.06-0.16-0.12-0.32-0.18-0.47c-0.77-1.93-1.48-3.88-2.15-5.82c-0.04-0.11-0.08-0.23-0.13-0.36
		c0-0.01,0-0.01-0.01-0.02c-0.07-0.19-0.15-0.41-0.23-0.66c-0.1-0.29-0.19-0.58-0.29-0.86c-0.04-0.12-0.08-0.23-0.12-0.36
		c-0.13-0.4-0.26-0.79-0.39-1.19c-0.37-1.13-0.77-2.43-1.17-3.8c-0.21-0.7-0.41-1.4-0.61-2.1c-0.03-0.1-0.06-0.2-0.08-0.3
		c-0.63-2.27-1.2-4.53-1.72-6.8c-0.02-0.09-0.04-0.17-0.05-0.25c-0.01-0.03-0.01-0.05-0.02-0.07c0-0.01,0-0.01,0-0.02
		c-0.2-0.98-0.34-1.84-0.41-2.54c-0.26-2.6,1.23-5.76,4.23-10.28c3.18-4.79,8.05-11.12,14.35-19.94
		c13.59-19.04,15.22-21.28,18.48-25.23c5.58-6.75,14.02-16.86,27.04-28.13c0,0,0.58-0.5,1.66-1.39c0.27-0.17,0.55-0.34,0.82-0.51
		C205.53,228.12,214.73,223.32,223.94,219.45z"/>
	<linearGradient id="SVGID_12_" gradientUnits="userSpaceOnUse" x1="393.1608" y1="270.8482" x2="49.7349" y2="604.0078">
		<stop  offset="0.0368" style="stop-color:#1D71B8"/>
		<stop  offset="0.1679" style="stop-color:#2E89C8"/>
		<stop  offset="0.3162" style="stop-color:#409FD6"/>
		<stop  offset="0.4691" style="stop-color:#51B0DF"/>
		<stop  offset="0.6262" style="stop-color:#5CBDE6"/>
		<stop  offset="0.7902" style="stop-color:#64C4EA"/>
		<stop  offset="0.9721" style="stop-color:#66C7EB"/>
	</linearGradient>
	<path class="st13" d="M345.26,477.52c-20.45,36.7-46.35,67.17-74.3,89.61c-1.66,1.35-3.34,2.66-5.02,3.93l-8.85-15.33l-6.51-11.27
		c-2.48-4.29-3.62-9.12-3.42-13.9c0.17-4.09,1.31-8.13,3.42-11.8l7.33-12.69l116.14-201.16c0.02-0.04,0.04-0.07,0.06-0.11
		c1.93-3.38,3.02-7.05,3.3-10.74c0.23-2.88-0.03-5.76-0.77-8.54c-1.23-4.71-3.81-9.09-7.63-12.53l-4.84-4.36
		c-4.47-4.04-9.89-6.18-15.36-6.56c-4.77-0.34-9.04,0.86-12.89,3.23c-3.56,2.2-6.42,5.36-8.54,8.97l-91.32,155.35
		c-0.99,1.72-2.13,3.26-3.39,4.63l-0.61,1.06c-9.89,17.13-34.61,17.13-44.5,0.01l-2.63-4.56l-12.71-22.01
		c-2.11-3.64-3.25-7.68-3.42-11.76c-0.2-4.8,0.94-9.64,3.42-13.94l101.32-175.52c0.25-0.01,0.49-0.02,0.74-0.02
		c18.93-0.79,36.98,3.05,53.1,12.03c17.52,9.76,31.07,24.66,40.53,43.18v0.01c3.36,6.58,6.2,13.6,8.52,21.02
		c1.23,3.91,2.31,7.93,3.25,12.05C391.42,347.41,380.39,414.46,345.26,477.52z"/>
	<linearGradient id="SVGID_13_" gradientUnits="userSpaceOnUse" x1="352.9128" y1="356.1514" x2="186.3464" y2="353.1324">
		<stop  offset="0" style="stop-color:#1D71B8"/>
		<stop  offset="0.9721" style="stop-color:#66C7EB"/>
	</linearGradient>
	<path class="st14" d="M354.6,263.16c-0.74-0.4-7.49-1.16-8.33-1.14c-8.65,0.24-14.98,5.49-19.31,12.98l-90.89,154.62
		c-0.99,1.72-2.13,3.26-3.39,4.63l-0.61,1.06c-9.89,17.13-34.61,17.13-44.5,0.01l-2.63-4.56c1.14-2.11,2.33-4.25,3.57-6.43
		c11.73-20.56,27.77-44.19,46.85-68.3c37.12-46.9,75.17-82.22,97.53-92.31c0.01,0,0.01-0.01,0.02-0.01
		C339.92,260.54,351.19,260.94,354.6,263.16z"/>
	<linearGradient id="SVGID_14_" gradientUnits="userSpaceOnUse" x1="208.5659" y1="258.3658" x2="137.3375" y2="329.2436">
		<stop  offset="0.0368" style="stop-color:#1D71B8"/>
		<stop  offset="0.1635" style="stop-color:#2881C3"/>
		<stop  offset="0.4193" style="stop-color:#419FD6"/>
		<stop  offset="0.6486" style="stop-color:#55B4E2"/>
		<stop  offset="0.8407" style="stop-color:#61C2E9"/>
		<stop  offset="0.9721" style="stop-color:#66C7EB"/>
	</linearGradient>
	<path class="st15" d="M234.8,209.84c-0.01,0.01-0.02,0.02-0.02,0.03c-6.53,13.14-42.94,76.79-77.25,136.42
		c-0.64,1.19-1.95,3.23-4.36,4.73c-0.62,0.38-4.8,2.89-9.54,1.28c-0.82-0.28-2.16-0.73-3.39-1.94c-1.37-1.35-1.79-2.76-2.78-5.39
		c-0.01-0.03-0.03-0.07-0.04-0.1c-0.06-0.16-0.12-0.32-0.18-0.47c-1.76-4.62-0.9-2.41-2.15-5.82c-0.04-0.11-0.08-0.23-0.13-0.36
		c0-0.01,0-0.01-0.01-0.02c-0.07-0.19-0.15-0.41-0.23-0.66c-0.1-0.29-0.19-0.58-0.29-0.86c-0.04-0.12-0.08-0.23-0.12-0.36
		c-0.13-0.36-0.25-0.76-0.39-1.19c-0.37-1.13-0.77-2.43-1.17-3.8c-0.21-0.7-0.41-1.4-0.61-2.1c-0.03-0.1-0.06-0.2-0.08-0.3
		c-0.68-2.38-1.3-4.8-1.72-6.8c-0.02-0.09-0.04-0.17-0.05-0.25c-0.01-0.03-0.01-0.05-0.02-0.07c0-0.01,0-0.01,0-0.02
		c-0.2-0.98-0.34-1.84-0.41-2.54c-0.26-2.6,1.23-5.76,4.23-10.28c3.18-4.79,8.05-11.12,14.35-19.94
		c13.59-19.04,15.22-21.28,18.48-25.23c5.58-6.75,14.02-16.86,27.04-28.13c0,0,0.58-0.5,1.66-1.39c0.33-0.28,0.72-0.6,1.15-0.95
		c5.35-4.37,17.76-14.05,31.9-22.07c0.73-0.42,1.47-0.83,2.21-1.24l0.02-0.01c3.2-1.76,4.81-2.64,4.89-2.59
		C235.9,207.48,235.55,208.32,234.8,209.84z"/>
</g>
</svg>
